<svg width="26" height="33" viewBox="0 0 26 33" fill="none" xmlns="http://www.w3.org/2000/svg">
<path opacity="0.15" d="M11.874 32.7249C16.8453 32.7249 20.8752 32.2615 20.8752 31.6898C20.8752 31.1181 16.8453 30.6546 11.874 30.6546C6.90279 30.6546 2.8728 31.1181 2.8728 31.6898C2.8728 32.2615 6.90279 32.7249 11.874 32.7249Z" fill="#45413C"/>
<path d="M24.0243 4.69315L8.60754 1.40054C7.61819 1.18924 6.6443 1.81731 6.43229 2.80337L1.38386 26.2845C1.17185 27.2705 1.80202 28.2412 2.79137 28.4525L18.2081 31.7451C19.1975 31.9564 20.1714 31.3283 20.3834 30.3423L25.4318 6.86117C25.6438 5.8751 25.0136 4.90445 24.0243 4.69315Z" fill="white"/>
<path d="M18.8183 29.6678L2.20066 26.1345C1.95066 26.0802 1.71482 25.9744 1.50826 25.8239L1.42518 26.2173C1.32209 26.6867 1.40998 27.1777 1.66958 27.5826C1.92917 27.9875 2.33928 28.2733 2.80998 28.3773L18.1951 31.6484C18.6661 31.7511 19.1587 31.6635 19.565 31.4048C19.9713 31.146 20.258 30.7373 20.3624 30.2682L20.6116 29.1019C20.3887 29.3446 20.1057 29.5246 19.7909 29.624C19.4762 29.7233 19.1408 29.7384 18.8183 29.6678Z" fill="#E0E0E0"/>
<path d="M23.9798 4.64762L8.59395 1.37972C7.60658 1.17001 6.63558 1.79776 6.42517 2.78186L1.41462 26.216C1.20421 27.2001 1.83406 28.1678 2.82143 28.3775L18.2073 31.6454C19.1947 31.8552 20.1657 31.2274 20.3761 30.2433L25.3866 6.8092C25.5971 5.8251 24.9672 4.85733 23.9798 4.64762Z" stroke="#45413C" stroke-linecap="round" stroke-linejoin="round"/>
<path d="M17.9256 23.4776C17.9256 23.4776 17.7594 20.2617 12.8226 19.2127C7.88578 18.1638 6.07861 20.9932 6.07861 20.9932C7.02121 20.9529 7.96551 20.9828 8.90361 21.0829C8.48125 23.0497 9.36752 23.8433 9.36752 23.8433C9.36752 23.8433 10.8354 22.0353 12.1717 22.3251C13.5081 22.6149 14.1105 24.8509 14.1105 24.8509C14.5293 24.618 14.887 24.2896 15.1541 23.8926C15.4213 23.4956 15.5904 23.0413 15.6476 22.5666C16.4333 22.8002 17.1958 23.1051 17.9256 23.4776Z" fill="#656769"/>
<path d="M8.82715 19.2265C9.21585 19.8555 9.72635 20.401 10.3289 20.8312C10.9314 21.2613 11.6138 21.5676 12.3364 21.7321C13.0589 21.8965 13.8071 21.9159 14.5373 21.789C15.2674 21.6622 15.9649 21.3916 16.589 20.9932C15.5316 20.0843 14.2465 19.4784 12.8708 19.2403C11.5436 18.9117 10.1565 18.907 8.82715 19.2265Z" fill="#525252"/>
<path d="M17.9256 23.4776C17.9256 23.4776 17.7594 20.2617 12.8226 19.2127C7.88578 18.1638 6.07861 20.9932 6.07861 20.9932C7.02121 20.9529 7.96551 20.9828 8.90361 21.0829C8.48125 23.0497 9.36752 23.8433 9.36752 23.8433C9.36752 23.8433 10.8354 22.0353 12.1717 22.3251C13.5081 22.6149 14.1105 24.8509 14.1105 24.8509C14.5293 24.618 14.887 24.2896 15.1541 23.8926C15.4213 23.4956 15.5904 23.0413 15.6476 22.5666C16.4333 22.8002 17.1958 23.1051 17.9256 23.4776V23.4776Z" stroke="#45413C" stroke-linecap="round" stroke-linejoin="round"/>
<path d="M19.4484 11.0765C19.0233 10.935 18.5742 10.8792 18.1272 10.9123C17.6803 10.9455 17.2444 11.067 16.845 11.2697C16.8231 11.0194 16.8231 10.7677 16.845 10.5175C16.9419 8.82672 17.8698 8.60589 17.8698 8.60589C16.725 8.00355 15.3932 7.85798 14.1446 8.19873C13.2485 8.50771 12.5116 9.15778 12.0951 10.0068C11.5556 9.48213 10.8516 9.15811 10.101 9.08896C8.67467 8.95784 7.97534 10.4278 7.97534 10.4278C8.46243 10.4778 8.9161 10.6978 9.25629 11.0488C9.71327 11.6009 9.94869 12.6016 9.31168 15.6173L17.4959 17.3564C18.1398 14.3337 19.0191 13.2641 19.6562 12.9466C20.0483 12.7581 20.4947 12.7141 20.9163 12.8224C20.8592 12.424 20.6914 12.0494 20.4321 11.7409C20.1727 11.4324 19.832 11.2023 19.4484 11.0765Z" fill="#656769"/>
<path d="M10.101 10.5865C10.8516 10.6556 11.5556 10.9797 12.0951 11.5043C12.5052 10.6607 13.2312 10.0114 14.1169 9.69625C15.0417 9.41223 16.0329 9.42672 16.9489 9.73766C17.2258 8.76461 17.8421 8.60589 17.8421 8.60589C16.6973 8.00355 15.3655 7.85798 14.1169 8.19873C13.2312 8.51392 12.5052 9.16322 12.0951 10.0068C11.5556 9.48213 10.8516 9.15811 10.101 9.08896C8.67467 8.95784 7.97534 10.4278 7.97534 10.4278C8.35249 10.4697 8.7125 10.6076 9.02087 10.828C9.34653 10.6364 9.72445 10.5519 10.101 10.5865Z" fill="#87898C"/>
<path d="M16.8174 12.0219C16.7956 12.2722 16.7956 12.5238 16.8174 12.7741C17.2168 12.5714 17.6527 12.45 18.0996 12.4168C18.5466 12.3836 18.9957 12.4394 19.4208 12.5809C19.6036 12.6449 19.7779 12.7307 19.9401 12.8362C20.2512 12.7562 20.5776 12.7562 20.8887 12.8362C20.8315 12.4378 20.6638 12.0632 20.4044 11.7547C20.1451 11.4462 19.8044 11.2161 19.4208 11.0903C18.6027 10.8131 17.7084 10.8651 16.9282 11.2352C16.8602 11.4921 16.823 11.7562 16.8174 12.0219Z" fill="#87898C"/>
<path d="M9.65797 13.5332C9.58037 14.2291 9.4648 14.9202 9.31177 15.6035L9.57488 15.6656C9.70525 14.9625 9.73324 14.2443 9.65797 13.5332Z" fill="#87898C"/>
<path d="M19.4484 11.0765C19.0233 10.935 18.5742 10.8792 18.1272 10.9123C17.6803 10.9455 17.2444 11.067 16.845 11.2697C16.8231 11.0194 16.8231 10.7677 16.845 10.5175C16.9419 8.82672 17.8698 8.60589 17.8698 8.60589C16.725 8.00355 15.3932 7.85798 14.1446 8.19873C13.2485 8.50771 12.5116 9.15778 12.0951 10.0068C11.5556 9.48213 10.8516 9.15811 10.101 9.08896C8.67467 8.95784 7.97534 10.4278 7.97534 10.4278C8.46243 10.4778 8.9161 10.6978 9.25629 11.0488C9.71327 11.6009 9.94869 12.6016 9.31168 15.6173L17.4959 17.3564C18.1398 14.3337 19.0191 13.2641 19.6562 12.9466C20.0483 12.7581 20.4947 12.7141 20.9163 12.8224C20.8592 12.424 20.6914 12.0494 20.4321 11.7409C20.1727 11.4324 19.832 11.2023 19.4484 11.0765V11.0765Z" stroke="#45413C" stroke-linecap="round" stroke-linejoin="round"/>
<path d="M16.7348 13.9749C16.3167 14.2606 15.8409 14.4513 15.3408 14.5336C14.8406 14.6159 14.3285 14.5877 13.8405 14.451C13.3406 14.3756 12.8633 14.1919 12.4423 13.9129C12.0212 13.634 11.6666 13.2664 11.4033 12.8362C10.6643 13.2457 10.0682 13.8702 9.69478 14.6263C9.32132 15.3823 9.18822 16.234 9.31326 17.0674C9.4383 17.9009 9.81552 18.6765 10.3945 19.2906C10.9736 19.9047 11.7268 20.3281 12.5537 20.5043C13.3805 20.6804 14.2416 20.6009 15.022 20.2763C15.8023 19.9518 16.4646 19.3977 16.9206 18.688C17.3766 17.9783 17.6044 17.1468 17.5737 16.3046C17.5429 15.4625 17.2551 14.6497 16.7486 13.9749H16.7348Z" fill="#FFDCD1"/>
<path d="M10.7103 14.2578C11.4267 15.197 12.4873 15.815 13.6599 15.9762C14.7952 16.3029 16.0138 16.1715 17.0527 15.6104C17.2677 15.8466 17.4558 16.1058 17.6135 16.3833C17.5933 15.5119 17.2977 14.6691 16.7688 13.9749C16.3508 14.2606 15.8749 14.4513 15.3748 14.5336C14.8747 14.6159 14.3626 14.5877 13.8746 14.451C13.3685 14.3804 12.8844 14.1989 12.4571 13.9197C12.0297 13.6405 11.6696 13.2705 11.4027 12.8362C10.531 13.3141 9.86022 14.0879 9.51245 15.0169C9.86983 14.7035 10.2739 14.4474 10.7103 14.2578Z" fill="#FFCEBF"/>
<path d="M16.7348 13.9749C16.3167 14.2606 15.8409 14.4513 15.3408 14.5336C14.8406 14.6159 14.3285 14.5877 13.8405 14.451C13.3406 14.3756 12.8633 14.1919 12.4423 13.9129C12.0212 13.634 11.6666 13.2664 11.4033 12.8362C10.6643 13.2457 10.0682 13.8702 9.69478 14.6263C9.32132 15.3823 9.18822 16.234 9.31326 17.0674C9.4383 17.9009 9.81552 18.6765 10.3945 19.2906C10.9736 19.9047 11.7268 20.3281 12.5537 20.5043C13.3805 20.6804 14.2416 20.6009 15.022 20.2763C15.8023 19.9518 16.4646 19.3977 16.9206 18.688C17.3766 17.9783 17.6044 17.1468 17.5737 16.3046C17.5429 15.4625 17.2551 14.6497 16.7486 13.9749H16.7348Z" stroke="#45413C" stroke-linecap="round" stroke-linejoin="round"/>
<path d="M15.427 16.9498C15.4174 16.9952 15.399 17.0382 15.3727 17.0765C15.3465 17.1148 15.3129 17.1475 15.274 17.1728C15.235 17.1982 15.1914 17.2156 15.1457 17.2242C15.1 17.2328 15.053 17.2323 15.0075 17.2227C14.962 17.2132 14.9188 17.1948 14.8804 17.1687C14.842 17.1425 14.8091 17.1091 14.7837 17.0702C14.7583 17.0314 14.7408 16.988 14.7322 16.9424C14.7236 16.8968 14.7241 16.85 14.7336 16.8047C14.7529 16.713 14.808 16.6328 14.8867 16.5816C14.9653 16.5304 15.0612 16.5125 15.1531 16.5317C15.2451 16.551 15.3256 16.6058 15.3769 16.6842C15.4283 16.7626 15.4463 16.8581 15.427 16.9498Z" fill="#656769" stroke="#45413C" stroke-linecap="round" stroke-linejoin="round"/>
<path d="M12.0407 16.2321C12.0214 16.3237 11.9664 16.4039 11.8877 16.4551C11.8091 16.5063 11.7132 16.5243 11.6213 16.505C11.5293 16.4858 11.4488 16.4309 11.3975 16.3525C11.3461 16.2741 11.3281 16.1786 11.3474 16.087C11.357 16.0416 11.3754 15.9985 11.4017 15.9603C11.4279 15.922 11.4615 15.8892 11.5004 15.8639C11.5394 15.8385 11.583 15.8211 11.6287 15.8125C11.6744 15.804 11.7214 15.8045 11.7669 15.814C11.8124 15.8235 11.8556 15.8419 11.894 15.8681C11.9324 15.8942 11.9653 15.9277 11.9907 15.9665C12.0161 16.0053 12.0336 16.0488 12.0422 16.0943C12.0508 16.1399 12.0503 16.1867 12.0407 16.2321Z" fill="#656769" stroke="#45413C" stroke-linecap="round" stroke-linejoin="round"/>
<path d="M7.83022 11.0971C7.8025 11.231 7.7355 11.3537 7.63772 11.4495C7.53995 11.5454 7.41581 11.6102 7.28105 11.6357C7.14629 11.6611 7.00697 11.6461 6.88078 11.5925C6.75459 11.539 6.64721 11.4492 6.57225 11.3347C6.4973 11.2203 6.45815 11.0862 6.45977 10.9495C6.46138 10.8128 6.5037 10.6796 6.58135 10.5669C6.659 10.4543 6.76848 10.3671 6.8959 10.3165C7.02333 10.2659 7.16295 10.2542 7.29707 10.2828C7.47578 10.3209 7.63211 10.4279 7.73198 10.5805C7.83186 10.733 7.86717 10.9187 7.83022 11.0971Z" fill="#87898C" stroke="#45413C" stroke-linecap="round" stroke-linejoin="round"/>
<path d="M22.1974 13.4435C22.1697 13.5774 22.1027 13.7 22.0049 13.7959C21.9071 13.8918 21.783 13.9566 21.6482 13.982C21.5135 14.0075 21.3742 13.9925 21.248 13.9389C21.1218 13.8853 21.0144 13.7956 20.9394 13.6811C20.8645 13.5666 20.8253 13.4325 20.827 13.2958C20.8286 13.1591 20.8709 13.026 20.9485 12.9133C21.0262 12.8006 21.1357 12.7135 21.2631 12.6629C21.3905 12.6123 21.5301 12.6006 21.6643 12.6292C21.843 12.6673 21.9993 12.7743 22.0992 12.9269C22.199 13.0794 22.2344 13.2651 22.1974 13.4435Z" fill="#87898C" stroke="#45413C" stroke-linecap="round" stroke-linejoin="round"/>
<path d="M19.2685 8.94403C19.2396 9.0773 19.1716 9.19903 19.0733 9.29385C18.975 9.38867 18.8507 9.45234 18.7161 9.47681C18.5815 9.50129 18.4427 9.48548 18.3171 9.43137C18.1915 9.37727 18.0848 9.2873 18.0105 9.17282C17.9362 9.05834 17.8975 8.92448 17.8995 8.78813C17.9014 8.65179 17.9438 8.51908 18.0214 8.40674C18.0989 8.29441 18.2081 8.20749 18.3352 8.15696C18.4623 8.10642 18.6015 8.09454 18.7354 8.12281C18.8246 8.14166 18.9092 8.17788 18.9843 8.2294C19.0594 8.28091 19.1236 8.34672 19.1731 8.42302C19.2227 8.49933 19.2566 8.58463 19.273 8.67404C19.2893 8.76346 19.2878 8.85521 19.2685 8.94403Z" fill="#87898C" stroke="#45413C" stroke-linecap="round" stroke-linejoin="round"/>
<path d="M11.8738 18.6606C12.1218 18.9406 12.4534 19.1339 12.8198 19.2121C13.1862 19.2904 13.5681 19.2495 13.9094 19.0954" fill="#656769"/>
<path d="M11.8738 18.6606C12.1218 18.9406 12.4534 19.1339 12.8198 19.2121C13.1862 19.2904 13.5681 19.2495 13.9094 19.0954" stroke="#45413C" stroke-linecap="round" stroke-linejoin="round"/>
</svg>
