<svg width="28" height="20" viewBox="0 0 28 20" fill="none" xmlns="http://www.w3.org/2000/svg">
<path d="M2.26245 15.7656H25.6999C26.0729 15.7656 26.4306 15.9138 26.6943 16.1775C26.958 16.4412 27.1062 16.7989 27.1062 17.1719C27.1062 17.5448 26.958 17.9025 26.6943 18.1662C26.4306 18.43 26.0729 18.5781 25.6999 18.5781H2.26245C1.88949 18.5781 1.53181 18.43 1.26808 18.1662C1.00436 17.9025 0.856201 17.5448 0.856201 17.1719C0.856201 16.7989 1.00436 16.4412 1.26808 16.1775C1.53181 15.9138 1.88949 15.7656 2.26245 15.7656Z" fill="#5E49DA"/>
<path d="M4.15625 5.3125L7.18437 1.45937L10.25 5.3125H17.75L20.7781 1.47812L23.8438 5.3125L19.625 12.7281L8.87187 12.8781L4.15625 5.3125Z" fill="#5E49DA"/>
<path d="M0.875 1.9L7.4375 8.67813L14 1.9L20.5625 8.67813L27.125 1.9L25.7375 15.7656H2.3L0.875 1.9Z" fill="#5E49DA"/>
<path d="M13.9999 6.11875L16.8686 8.9875L13.9999 11.875L11.1311 9.00625L13.9999 6.11875Z" fill="#5E49DA"/>
<path d="M27.1249 1.9L24.2374 4.88125L23.1499 15.7656H25.7374L27.1249 1.9Z" fill="#5E49DA"/>
<path d="M19.5405 15.7656C19.9135 15.7656 20.2712 15.9138 20.5349 16.1775C20.7986 16.4412 20.9468 16.7989 20.9468 17.1719C20.9468 17.5448 20.7986 17.9025 20.5349 18.1662C20.2712 18.43 19.9135 18.5781 19.5405 18.5781H25.7374C26.1104 18.5781 26.468 18.43 26.7318 18.1662C26.9955 17.9025 27.1437 17.5448 27.1437 17.1719C27.1437 16.7989 26.9955 16.4412 26.7318 16.1775C26.468 15.9138 26.1104 15.7656 25.7374 15.7656H19.5405Z" fill="#5E49DA"/>
<path d="M26.5062 15.2031L27.8281 1.975C27.8447 1.82844 27.8148 1.68037 27.7427 1.55174C27.6705 1.42311 27.5597 1.32042 27.426 1.25822C27.2922 1.19602 27.1423 1.17745 26.9974 1.20513C26.8526 1.23282 26.7201 1.30536 26.6187 1.4125L23.9 4.225L21.3687 1.02812C21.3032 0.943777 21.2194 0.875459 21.1235 0.828352C21.0277 0.781244 20.9224 0.756586 20.8156 0.756248C20.709 0.757931 20.6042 0.783182 20.5085 0.830188C20.4129 0.877194 20.3289 0.94479 20.2625 1.02812L17.5062 4.51562L14.5062 1.4125C14.37 1.28186 14.1887 1.20892 14 1.20892C13.8113 1.20892 13.6299 1.28186 13.4937 1.4125L10.4937 4.51562L7.73746 1.02812C7.66881 0.94874 7.58388 0.885063 7.48844 0.841418C7.393 0.797772 7.28928 0.775182 7.18433 0.775182C7.07939 0.775182 6.97567 0.797772 6.88023 0.841418C6.78478 0.885063 6.69985 0.94874 6.63121 1.02812L4.09996 4.225L1.38121 1.4125C1.27984 1.30536 1.14734 1.23282 1.00247 1.20513C0.857596 1.17745 0.707686 1.19602 0.57395 1.25822C0.440215 1.32042 0.329426 1.42311 0.257262 1.55174C0.185098 1.68037 0.155212 1.82844 0.171834 1.975L1.49371 15.2031C1.03734 15.3795 0.657291 15.7104 0.419727 16.1381C0.182164 16.5658 0.102137 17.0633 0.193582 17.5439C0.285027 18.0246 0.54215 18.4579 0.920182 18.7685C1.29821 19.0791 1.77321 19.2473 2.26246 19.2438H25.7C26.1892 19.2473 26.6642 19.0791 27.0422 18.7685C27.4203 18.4579 27.6774 18.0246 27.7688 17.5439C27.8603 17.0633 27.7803 16.5658 27.5427 16.1381C27.3051 15.7104 26.9251 15.3795 26.4687 15.2031H26.5062ZM20.8156 2.59375L22.9062 5.2375L20.5625 7.66562L18.4906 5.52812L20.8156 2.59375ZM7.18433 2.59375L9.50933 5.52812L7.43746 7.66562L5.09371 5.2375L7.18433 2.59375ZM6.93121 9.15625C7.06737 9.28689 7.24876 9.35983 7.43746 9.35983C7.62615 9.35983 7.80754 9.28689 7.94371 9.15625L14 2.9125L20.0562 9.16562C20.1924 9.29626 20.3738 9.3692 20.5625 9.3692C20.7512 9.3692 20.9325 9.29626 21.0687 9.16562L26.1875 3.84062L25.0625 15.0906H2.89996L1.81246 3.84062L6.93121 9.15625ZM25.7375 17.8281H2.29996C2.11759 17.8257 1.94354 17.7515 1.81545 17.6216C1.68737 17.4918 1.61557 17.3168 1.61558 17.1344C1.61805 16.9545 1.69124 16.7828 1.81932 16.6565C1.9474 16.5302 2.12006 16.4594 2.29996 16.4594H25.7375C25.9174 16.4594 26.09 16.5302 26.2181 16.6565C26.3462 16.7828 26.4194 16.9545 26.4218 17.1344C26.4231 17.2255 26.4063 17.3159 26.3726 17.4006C26.3389 17.4852 26.2888 17.5624 26.2253 17.6277C26.1617 17.693 26.0859 17.7451 26.0022 17.7811C25.9185 17.8171 25.8286 17.8363 25.7375 17.8375V17.8281Z" fill="white"/>
<path d="M13.5032 12.3531C13.635 12.4848 13.8137 12.5588 14 12.5588C14.1864 12.5588 14.3651 12.4848 14.4969 12.3531L17.3657 9.48437C17.432 9.41974 17.4847 9.34247 17.5207 9.25714C17.5567 9.1718 17.5752 9.08012 17.5752 8.9875C17.5752 8.89488 17.5567 8.8032 17.5207 8.71786C17.4847 8.63253 17.432 8.55526 17.3657 8.49062L14.4969 5.62187C14.4323 5.55554 14.355 5.50282 14.2697 5.46682C14.1843 5.43082 14.0926 5.41228 14 5.41228C13.9074 5.41228 13.8157 5.43082 13.7304 5.46682C13.6451 5.50282 13.5678 5.55554 13.5032 5.62187L10.6344 8.49062C10.5681 8.55526 10.5153 8.63253 10.4793 8.71786C10.4434 8.8032 10.4248 8.89488 10.4248 8.9875C10.4248 9.08012 10.4434 9.1718 10.4793 9.25714C10.5153 9.34247 10.5681 9.41974 10.6344 9.48437L13.5032 12.3531ZM14 7.1125L15.875 8.9875L14 10.8625L12.125 8.9875L14 7.1125Z" fill="white"/>
<path d="M3.79987 13.3844C3.82766 13.5682 3.92709 13.7335 4.07642 13.8441C4.22575 13.9548 4.41283 14.0019 4.59675 13.975C4.6882 13.9635 4.77644 13.9339 4.85631 13.8879C4.93619 13.8419 5.0061 13.7804 5.06196 13.7071C5.11782 13.6338 5.15851 13.5501 5.18165 13.4609C5.20479 13.3717 5.20993 13.2787 5.19675 13.1875C5.17064 13.0023 5.07202 12.835 4.92258 12.7225C4.77313 12.6099 4.58511 12.5614 4.39987 12.5875C4.21464 12.6136 4.04736 12.7122 3.93484 12.8617C3.82231 13.0111 3.77377 13.1991 3.79987 13.3844Z" fill="white"/>
<path d="M3.44352 10.7969C3.45503 10.8883 3.48464 10.9766 3.53064 11.0564C3.57663 11.1363 3.63808 11.2062 3.7114 11.2621C3.78471 11.3179 3.86842 11.3586 3.95764 11.3818C4.04686 11.4049 4.13979 11.4101 4.23102 11.3969C4.36917 11.3788 4.49884 11.3201 4.60358 11.2282C4.70831 11.1364 4.78339 11.0154 4.81929 10.8808C4.85518 10.7462 4.85027 10.6039 4.80517 10.4721C4.76008 10.3403 4.67684 10.2248 4.56602 10.1404C4.45519 10.056 4.32178 10.0063 4.18271 9.99786C4.04365 9.98937 3.90519 10.0224 3.78493 10.0927C3.66466 10.1631 3.568 10.2676 3.50721 10.3929C3.44643 10.5183 3.42426 10.6589 3.44352 10.7969Z" fill="white"/>
<path d="M3.86562 8.81875C3.95746 8.8061 4.0459 8.77541 4.12583 8.72845C4.20577 8.6815 4.27563 8.61919 4.3314 8.54513C4.38716 8.47107 4.42773 8.38671 4.45076 8.29691C4.4738 8.20711 4.47885 8.11363 4.46562 8.02187C4.46 7.92478 4.43429 7.82991 4.39013 7.74326C4.34597 7.65661 4.28432 7.58006 4.20906 7.51846C4.13381 7.45685 4.04659 7.41153 3.95293 7.38535C3.85926 7.35918 3.76118 7.35272 3.66489 7.36638C3.5686 7.38004 3.4762 7.41353 3.39351 7.46473C3.31082 7.51593 3.23966 7.58373 3.18451 7.66384C3.12937 7.74394 3.09144 7.83462 3.07312 7.93014C3.05481 8.02565 3.05651 8.12393 3.07812 8.21875C3.10375 8.40239 3.20088 8.56847 3.34837 8.68084C3.49586 8.79321 3.68176 8.84278 3.86562 8.81875Z" fill="white"/>
<path d="M23.3749 13.975C23.5589 14.0019 23.7459 13.9548 23.8953 13.8441C24.0446 13.7335 24.144 13.5682 24.1718 13.3844C24.1848 13.2927 24.1795 13.1993 24.1563 13.1096C24.1332 13.0199 24.0926 12.9357 24.0369 12.8617C23.9811 12.7877 23.9114 12.7254 23.8316 12.6783C23.7518 12.6313 23.6635 12.6004 23.5718 12.5875C23.4801 12.5746 23.3867 12.5798 23.297 12.603C23.2074 12.6262 23.1231 12.6668 23.0491 12.7225C22.9751 12.7782 22.9128 12.8479 22.8658 12.9277C22.8187 13.0075 22.7879 13.0958 22.7749 13.1875C22.7618 13.2787 22.7669 13.3717 22.79 13.4609C22.8132 13.5501 22.8539 13.6338 22.9097 13.7071C22.9656 13.7804 23.0355 13.8419 23.1154 13.8879C23.1953 13.9339 23.2835 13.9635 23.3749 13.975Z" fill="white"/>
<path d="M23.7688 11.3969C23.86 11.41 23.9529 11.4049 24.0421 11.3818C24.1314 11.3586 24.2151 11.3179 24.2884 11.2621C24.3617 11.2062 24.4232 11.1363 24.4691 11.0564C24.5151 10.9766 24.5448 10.8883 24.5563 10.7969C24.5831 10.613 24.5361 10.4259 24.4254 10.2765C24.3147 10.1272 24.1494 10.0278 23.9656 10C23.8739 9.98707 23.7806 9.99234 23.6909 10.0155C23.6012 10.0386 23.5169 10.0792 23.4429 10.135C23.3689 10.1907 23.3066 10.2604 23.2596 10.3402C23.2126 10.42 23.1817 10.5083 23.1688 10.6C23.1558 10.6917 23.1611 10.7851 23.1843 10.8748C23.2074 10.9645 23.248 11.0487 23.3037 11.1227C23.3594 11.1967 23.4292 11.259 23.509 11.306C23.5888 11.3531 23.677 11.3839 23.7688 11.3969Z" fill="white"/>
<path d="M24.1343 8.81875C24.3182 8.84278 24.5041 8.79321 24.6515 8.68084C24.799 8.56847 24.8962 8.40239 24.9218 8.21875C24.9434 8.12393 24.9451 8.02565 24.9268 7.93014C24.9085 7.83462 24.8706 7.74394 24.8154 7.66384C24.7603 7.58373 24.6891 7.51593 24.6064 7.46473C24.5237 7.41353 24.4313 7.38004 24.335 7.36638C24.2387 7.35272 24.1407 7.35918 24.047 7.38535C23.9533 7.41153 23.8661 7.45685 23.7909 7.51846C23.7156 7.58006 23.6539 7.65661 23.6098 7.74326C23.5656 7.82991 23.5399 7.92478 23.5343 8.02187C23.5211 8.11363 23.5261 8.20711 23.5491 8.29691C23.5722 8.38671 23.6128 8.47107 23.6685 8.54513C23.7243 8.61919 23.7941 8.6815 23.8741 8.72845C23.954 8.77541 24.0425 8.8061 24.1343 8.81875Z" fill="white"/>
</svg>
