<svg width="19" height="20" viewBox="0 0 19 20" fill="none" xmlns="http://www.w3.org/2000/svg">
<path d="M8.70825 3.33331H3.16659C2.74666 3.33331 2.34393 3.50891 2.047 3.82147C1.75007 4.13403 1.58325 4.55795 1.58325 4.99998V16.6666C1.58325 17.1087 1.75007 17.5326 2.047 17.8452C2.34393 18.1577 2.74666 18.3333 3.16659 18.3333H14.2499C14.6698 18.3333 15.0726 18.1577 15.3695 17.8452C15.6664 17.5326 15.8333 17.1087 15.8333 16.6666V10.8333" stroke="#5E49DA" stroke-width="2" stroke-linecap="round" stroke-linejoin="round"/>
<path d="M14.6458 2.08332C14.9607 1.7518 15.3879 1.56555 15.8333 1.56555C16.2787 1.56555 16.7058 1.7518 17.0208 2.08332C17.3357 2.41484 17.5126 2.86448 17.5126 3.33332C17.5126 3.80216 17.3357 4.2518 17.0208 4.58332L9.49992 12.5L6.33325 13.3333L7.12492 9.99998L14.6458 2.08332Z" stroke="#5E49DA" stroke-width="2" stroke-linecap="round" stroke-linejoin="round"/>
</svg>
