<svg width="23" height="17" viewBox="0 0 23 17" fill="none" xmlns="http://www.w3.org/2000/svg">
<path d="M11.3881 16.546C6.32706 16.546 2.28807 13.426 0.364075 8.72C2.30507 4.013 6.34406 0.893005 11.3881 0.893005C16.4321 0.893005 20.488 4.013 22.429 8.72C20.488 13.426 16.4321 16.546 11.3881 16.546ZM11.3881 14.67C15.3921 14.67 18.8411 12.236 20.4531 8.72C18.8411 5.203 15.3921 2.76901 11.3881 2.76901C7.40106 2.76901 3.95206 5.203 2.34006 8.72C3.93506 12.236 7.38406 14.67 11.3881 14.67ZM7.19305 8.72C7.19305 6.303 9.06506 4.35599 11.3711 4.35599C13.6931 4.35599 15.5651 6.321 15.5651 8.72C15.5651 11.136 13.6761 13.084 11.3711 13.084C9.06506 13.084 7.19305 11.118 7.19305 8.72ZM11.6311 7.62C11.6311 8.377 12.2031 8.98999 12.9481 8.98999C13.6591 8.98999 14.248 8.377 14.248 7.62C14.248 6.88 13.6761 6.267 12.9481 6.267C12.2201 6.267 11.6311 6.862 11.6311 7.62Z" fill="#5E49DA"/>
</svg>
