<svg viewBox="0 0 57 57" fill="none" xmlns="http://www.w3.org/2000/svg">
<path d="M7.00073 39.4547H51.532C52.2406 39.4547 52.9202 39.7362 53.4213 40.2373C53.9224 40.7384 54.2039 41.418 54.2039 42.1266C54.2039 42.8352 53.9224 43.5148 53.4213 44.0159C52.9202 44.517 52.2406 44.7985 51.532 44.7985H7.00073C6.29211 44.7985 5.61251 44.517 5.11143 44.0159C4.61036 43.5148 4.32886 42.8352 4.32886 42.1266C4.32886 41.418 4.61036 40.7384 5.11143 40.2373C5.61251 39.7362 6.29211 39.4547 7.00073 39.4547Z" fill="#5E49DA"/>
<path d="M10.5989 19.5938L16.3523 12.2728L22.177 19.5938H36.427L42.1804 12.3085L48.0051 19.5938L39.9895 33.6835L19.5586 33.9685L10.5989 19.5938Z" fill="#5E49DA"/>
<path d="M4.3645 13.11L16.8333 25.9885L29.302 13.11L41.7708 25.9885L54.2395 13.11L51.6033 39.4547H7.072L4.3645 13.11Z" fill="#5E49DA"/>
<path d="M29.3019 21.1256L34.7526 26.5763L29.3019 32.0625L23.8513 26.6119L29.3019 21.1256Z" fill="#5E49DA"/>
<path d="M54.2395 13.11L48.7533 18.7744L46.687 39.4547H51.6033L54.2395 13.11Z" fill="#5E49DA"/>
<path d="M39.8291 39.4547C40.5377 39.4547 41.2173 39.7362 41.7184 40.2373C42.2195 40.7384 42.501 41.418 42.501 42.1266C42.501 42.8352 42.2195 43.5148 41.7184 44.0159C41.2173 44.517 40.5377 44.7985 39.8291 44.7985H51.6032C52.3118 44.7985 52.9914 44.517 53.4925 44.0159C53.9935 43.5148 54.275 42.8352 54.275 42.1266C54.275 41.418 53.9935 40.7384 53.4925 40.2373C52.9914 39.7362 52.3118 39.4547 51.6032 39.4547H39.8291Z" fill="#5E49DA"/>
<path d="M53.064 38.386L55.5756 13.2525C55.6071 12.9741 55.5503 12.6927 55.4132 12.4483C55.2761 12.2039 55.0656 12.0088 54.8115 11.8906C54.5574 11.7725 54.2726 11.7372 53.9973 11.7898C53.7221 11.8424 53.4703 11.9802 53.2777 12.1838L48.1121 17.5275L43.3027 11.4535C43.1783 11.2932 43.019 11.1634 42.8369 11.0739C42.6548 10.9844 42.4547 10.9375 42.2518 10.9369C42.0494 10.9401 41.8501 10.9881 41.6684 11.0774C41.4867 11.1667 41.3271 11.2951 41.2009 11.4535L35.964 18.0797L30.264 12.1838C30.0053 11.9356 29.6606 11.797 29.3021 11.797C28.9436 11.797 28.599 11.9356 28.3402 12.1838L22.6402 18.0797L17.4034 11.4535C17.2729 11.3026 17.1116 11.1816 16.9302 11.0987C16.7489 11.0158 16.5518 10.9729 16.3524 10.9729C16.153 10.9729 15.956 11.0158 15.7746 11.0987C15.5933 11.1816 15.4319 11.3026 15.3015 11.4535L10.4921 17.5275L5.32649 12.1838C5.13389 11.9802 4.88214 11.8424 4.60689 11.7898C4.33163 11.7372 4.0468 11.7725 3.7927 11.8906C3.5386 12.0088 3.32811 12.2039 3.19099 12.4483C3.05388 12.6927 2.9971 12.9741 3.02868 13.2525L5.54024 38.386C4.67315 38.7211 3.95105 39.3497 3.49968 40.1624C3.04831 40.975 2.89626 41.9203 3.07 42.8335C3.24375 43.7467 3.73228 44.5701 4.45054 45.1602C5.1688 45.7503 6.07129 46.0699 7.00087 46.0631H51.5321C52.4617 46.0699 53.3642 45.7503 54.0824 45.1602C54.8007 44.5701 55.2892 43.7467 55.463 42.8335C55.6367 41.9203 55.4847 40.975 55.0333 40.1624C54.5819 39.3497 53.8598 38.7211 52.9927 38.386H53.064ZM42.2518 14.4281L46.224 19.4513L41.7709 24.0647L37.8343 20.0035L42.2518 14.4281ZM16.3524 14.4281L20.7699 20.0035L16.8334 24.0647L12.3802 19.4513L16.3524 14.4281ZM15.8715 26.8969C16.1302 27.1451 16.4748 27.2837 16.8334 27.2837C17.1919 27.2837 17.5365 27.1451 17.7952 26.8969L29.3021 15.0338L40.809 26.9147C41.0677 27.1629 41.4123 27.3015 41.7709 27.3015C42.1294 27.3015 42.474 27.1629 42.7327 26.9147L52.4584 16.7972L50.3209 38.1722H8.21212L6.14587 16.7972L15.8715 26.8969ZM51.6034 43.3735H7.07212C6.72563 43.3688 6.39491 43.2278 6.15156 42.9811C5.9082 42.7345 5.77177 42.4019 5.77181 42.0553C5.77649 41.7136 5.91555 41.3874 6.1589 41.1474C6.40225 40.9073 6.73032 40.7728 7.07212 40.7728H51.6034C51.9452 40.7728 52.2732 40.9073 52.5166 41.1474C52.7599 41.3874 52.899 41.7136 52.9037 42.0553C52.906 42.2284 52.8743 42.4003 52.8102 42.5611C52.7461 42.722 52.651 42.8686 52.5302 42.9926C52.4095 43.1167 52.2655 43.2158 52.1064 43.2841C51.9474 43.3525 51.7765 43.3889 51.6034 43.3913V43.3735Z" fill="#FFF500"/>
<path d="M9.92206 34.9303C9.97485 35.2795 10.1638 35.5936 10.4475 35.8039C10.7312 36.0142 11.0867 36.1036 11.4361 36.0525C11.6099 36.0306 11.7775 35.9744 11.9293 35.887C12.0811 35.7996 12.2139 35.6828 12.32 35.5435C12.4261 35.4042 12.5035 35.2452 12.5474 35.0757C12.5914 34.9062 12.6012 34.7296 12.5761 34.5563C12.5265 34.2043 12.3391 33.8865 12.0552 33.6727C11.7712 33.4589 11.414 33.3667 11.0621 33.4163C10.7101 33.4659 10.3923 33.6533 10.1785 33.9372C9.96469 34.2211 9.87245 34.5784 9.92206 34.9303Z" fill="#FFF500"/>
<path d="M9.245 30.0141C9.26687 30.1878 9.32314 30.3555 9.41053 30.5072C9.49792 30.659 9.61467 30.7918 9.75397 30.898C9.89327 31.0041 10.0523 31.0814 10.2218 31.1254C10.3914 31.1694 10.5679 31.1791 10.7413 31.1541C11.0037 31.1198 11.2501 31.0083 11.4491 30.8337C11.6481 30.6591 11.7908 30.4293 11.859 30.1736C11.9272 29.9178 11.9178 29.6475 11.8322 29.397C11.7465 29.1466 11.5883 28.9272 11.3778 28.7668C11.1672 28.6063 10.9137 28.5121 10.6495 28.4959C10.3852 28.4798 10.1222 28.5426 9.89368 28.6762C9.66517 28.8098 9.48152 29.0084 9.36603 29.2466C9.25053 29.4848 9.20841 29.7519 9.245 30.0141Z" fill="#FFF500"/>
<path d="M10.047 26.2556C10.2215 26.2316 10.3895 26.1733 10.5414 26.0841C10.6933 25.9949 10.826 25.8765 10.9319 25.7358C11.0379 25.595 11.115 25.4348 11.1587 25.2641C11.2025 25.0935 11.2121 24.9159 11.187 24.7416C11.1763 24.5571 11.1275 24.3768 11.0435 24.2122C10.9596 24.0476 10.8425 23.9021 10.6995 23.7851C10.5565 23.668 10.3908 23.5819 10.2129 23.5322C10.0349 23.4825 9.84854 23.4702 9.66559 23.4961C9.48264 23.5221 9.30707 23.5857 9.14996 23.683C8.99286 23.7803 8.85764 23.9091 8.75287 24.0613C8.64809 24.2135 8.57602 24.3858 8.54123 24.5673C8.50644 24.7487 8.50967 24.9355 8.55072 25.1156C8.59942 25.4646 8.78397 25.7801 9.0642 25.9936C9.34443 26.2071 9.69765 26.3013 10.047 26.2556Z" fill="#FFF500"/>
<path d="M47.1145 36.0525C47.4639 36.1036 47.8194 36.0142 48.1031 35.8039C48.3868 35.5936 48.5757 35.2795 48.6285 34.9303C48.6531 34.7561 48.6431 34.5787 48.5991 34.4083C48.5551 34.2379 48.478 34.0778 48.3721 33.9372C48.2663 33.7966 48.1337 33.6782 47.9821 33.5889C47.8305 33.4995 47.6628 33.4408 47.4885 33.4163C47.3143 33.3917 47.1369 33.4017 46.9665 33.4457C46.7961 33.4897 46.636 33.5668 46.4954 33.6727C46.3548 33.7786 46.2364 33.9111 46.1471 34.0627C46.0577 34.2143 45.999 34.382 45.9745 34.5563C45.9494 34.7296 45.9592 34.9062 46.0032 35.0757C46.0471 35.2452 46.1245 35.4043 46.2306 35.5436C46.3367 35.6829 46.4695 35.7996 46.6213 35.887C46.7731 35.9744 46.9407 36.0307 47.1145 36.0525Z" fill="#FFF500"/>
<path d="M47.8628 31.1541C48.0362 31.1791 48.2127 31.1694 48.3822 31.1254C48.5518 31.0814 48.7108 31.0041 48.8501 30.898C48.9894 30.7918 49.1062 30.659 49.1935 30.5072C49.2809 30.3555 49.3372 30.1878 49.3591 30.0141C49.4101 29.6646 49.3207 29.3092 49.1105 29.0255C48.9002 28.7417 48.5861 28.5528 48.2369 28.5C48.0626 28.4755 47.8852 28.4855 47.7148 28.5295C47.5444 28.5735 47.3844 28.6506 47.2438 28.7564C47.1032 28.8623 46.9848 28.9948 46.8954 29.1464C46.806 29.298 46.7474 29.4657 46.7228 29.64C46.6983 29.8143 46.7083 29.9917 46.7523 30.1621C46.7963 30.3325 46.8734 30.4926 46.9793 30.6331C47.0851 30.7737 47.2176 30.8921 47.3692 30.9815C47.5208 31.0709 47.6886 31.1295 47.8628 31.1541Z" fill="#FFF500"/>
<path d="M48.5575 26.2556C48.9068 26.3013 49.26 26.2071 49.5403 25.9936C49.8205 25.7801 50.005 25.4646 50.0537 25.1156C50.0948 24.9355 50.098 24.7487 50.0632 24.5673C50.0284 24.3858 49.9564 24.2135 49.8516 24.0613C49.7468 23.9091 49.6116 23.7803 49.4545 23.683C49.2974 23.5857 49.1218 23.5221 48.9389 23.4961C48.7559 23.4702 48.5696 23.4825 48.3916 23.5322C48.2136 23.5819 48.0479 23.668 47.9049 23.7851C47.762 23.9021 47.6448 24.0476 47.5609 24.2122C47.477 24.3768 47.4282 24.5571 47.4175 24.7416C47.3923 24.9159 47.4019 25.0935 47.4457 25.2641C47.4895 25.4348 47.5666 25.595 47.6725 25.7358C47.7785 25.8765 47.9112 25.9949 48.0631 26.0841C48.215 26.1733 48.383 26.2316 48.5575 26.2556Z" fill="#FFF500"/>
<path d="M34.75 32.975V36H24.6V32.975H28.15V25.4C27.95 25.65 27.6083 25.9167 27.125 26.2C26.6583 26.4833 26.1417 26.725 25.575 26.925C25.025 27.125 24.5333 27.225 24.1 27.225V24.1C24.4 24.1 24.7583 24.0083 25.175 23.825C25.6083 23.625 26.0333 23.3917 26.45 23.125C26.8833 22.8583 27.25 22.6 27.55 22.35C27.8667 22.0833 28.0667 21.875 28.15 21.725H31.575V32.975H34.75Z" fill="#FFF500"/>
</svg>
