<svg width="120" height="120" viewBox="0 0 120 120" fill="none" xmlns="http://www.w3.org/2000/svg">
<path d="M60.0101 3C91.3901 3 116.96 28.52 117 59.89C117.06 91.31 91.5501 116.93 60.1201 117H60.0201C28.6401 117 3.0601 91.48 3.0001 60.11C2.9701 44.88 8.8801 30.56 19.6201 19.77C30.3701 8.98 44.6701 3.03 59.8901 3H60.0101ZM60.0101 0C59.9701 0 59.9301 0 59.8801 0C26.7601 0.06 -0.0598995 26.98 0.000100475 60.12C0.0701005 93.21 26.9301 120 60.0201 120C60.0601 120 60.0901 120 60.1301 120C93.2601 119.93 120.07 93.02 120 59.89C119.95 26.79 93.0901 0 60.0101 0Z" fill="#6A5ACD"/>
</svg>
