<svg width="197" height="267" viewBox="0 0 197 267" fill="none" xmlns="http://www.w3.org/2000/svg">
<g filter="url(#filter0_d)">
<path d="M98.311 0.000215323C46.1471 0.0947151 3.90566 42.4936 4.00016 94.689C4.11041 146.869 46.5093 189.094 98.7047 189C150.884 188.89 193.11 146.506 193 94.3268C192.921 42.1314 150.522 -0.110034 98.311 0.000215323Z" fill="white"/>
<path d="M144.065 94.4213C144.112 119.574 123.747 140.018 98.5945 140.065C73.4261 140.112 52.9826 119.747 52.9354 94.5946C52.8881 69.4261 73.2528 48.9827 98.4055 48.9512C123.574 48.8882 144.033 69.2529 144.065 94.4213Z" fill="#6A5ACD"/>
<path d="M117.904 99.8392C116.046 97.146 113.51 95.0355 110.328 93.492C113.132 92.0115 115.321 90.0427 116.912 87.5857C118.503 85.113 119.306 82.2938 119.306 79.0965C119.306 73.4423 117.432 68.9693 113.683 65.6775C109.935 62.3858 104.879 60.7321 98.5001 60.7321C92.0898 60.7321 87.0183 62.4015 83.3013 65.7248C79.5686 69.048 77.7101 73.5053 77.7101 79.0965C77.7101 82.278 78.4976 85.113 80.0726 87.5857C81.6476 90.0585 83.8368 92.0272 86.6403 93.492C83.4746 95.004 80.9703 97.0987 79.1118 99.8077C77.2533 102.517 76.3083 105.682 76.3083 109.321C76.3083 115.132 78.3086 119.731 82.3091 123.133C86.3096 126.535 91.7276 128.236 98.5473 128.236C105.383 128.236 110.769 126.551 114.754 123.165C118.723 119.779 120.708 115.18 120.708 109.336C120.692 105.714 119.763 102.532 117.904 99.8392ZM92.8143 73.521C94.1688 72.0248 96.0588 71.2688 98.5001 71.2688C100.973 71.2688 102.879 72.0405 104.233 73.5998C105.588 75.1433 106.265 77.2065 106.265 79.758C106.265 82.3725 105.603 84.483 104.265 86.0738C102.926 87.6645 101.02 88.4677 98.5631 88.4677C96.0903 88.4677 94.1846 87.6645 92.8301 86.0738C91.4756 84.483 90.7983 82.3725 90.7983 79.758C90.7826 77.0963 91.4598 75.0173 92.8143 73.521ZM105.194 115.258C103.587 116.912 101.367 117.747 98.5316 117.747C95.6493 117.747 93.3813 116.896 91.7591 115.18C90.1368 113.463 89.3178 111.211 89.3178 108.407C89.3178 105.525 90.1526 103.225 91.8063 101.524C93.4601 99.8235 95.6651 98.973 98.4371 98.973C101.241 98.973 103.461 99.8235 105.115 101.54C106.769 103.257 107.604 105.541 107.604 108.391C107.619 111.321 106.816 113.605 105.194 115.258Z" fill="url(#paint0_radial)"/>
<path d="M98.5157 4.72511C147.939 4.72511 188.212 44.919 188.275 94.3267C188.369 143.813 148.191 184.165 98.689 184.275H98.5315C49.1081 184.275 8.81965 144.081 8.72515 94.6732C8.6779 70.686 17.9861 48.132 34.9016 31.1378C51.8328 14.1436 74.3553 4.77236 98.3267 4.72511H98.5157ZM98.5157 0.00012207C98.4527 0.00012207 98.3897 0.00012207 98.311 0.00012207C46.1471 0.0946219 3.90566 42.4935 4.00016 94.6889C4.11041 146.806 46.4148 189 98.5315 189C98.5945 189 98.6417 189 98.7047 189C150.884 188.889 193.11 146.506 193 94.3267C192.921 42.1943 150.617 0.00012207 98.5157 0.00012207Z" fill="#6A5ACD"/>
<path d="M67.61 246.595C67.61 247.995 67.2483 249.173 66.525 250.13C65.8017 251.063 64.8217 251.775 63.585 252.265C62.3717 252.755 61.0417 253 59.595 253H47.59V228.15H60.89C62.0567 228.15 63.06 228.465 63.9 229.095C64.74 229.702 65.3933 230.495 65.86 231.475C66.3267 232.455 66.56 233.458 66.56 234.485C66.56 235.698 66.2567 236.842 65.65 237.915C65.0433 238.965 64.1567 239.747 62.99 240.26C64.4133 240.68 65.5333 241.438 66.35 242.535C67.19 243.632 67.61 244.985 67.61 246.595ZM52.42 232.28V238.545H58.86C59.6533 238.545 60.3417 238.265 60.925 237.705C61.5083 237.145 61.8 236.375 61.8 235.395C61.8 234.462 61.5317 233.715 60.995 233.155C60.4817 232.572 59.84 232.28 59.07 232.28H52.42ZM62.745 245.685C62.745 244.775 62.465 243.993 61.905 243.34C61.345 242.687 60.6567 242.36 59.84 242.36H52.42V248.905H59.595C60.4817 248.905 61.2283 248.59 61.835 247.96C62.4417 247.33 62.745 246.572 62.745 245.685ZM71.3791 253V228.15H76.2091V253H71.3791ZM86.2237 237.04V253H81.3937V228.15H85.2437L98.0887 244.53V228.185H102.919V253H98.8937L86.2237 237.04ZM118.413 253.175C116.78 253.175 115.251 252.848 113.828 252.195C112.405 251.542 111.145 250.643 110.048 249.5C108.975 248.333 108.135 246.98 107.528 245.44C106.921 243.9 106.618 242.232 106.618 240.435C106.618 238.732 106.921 237.133 107.528 235.64C108.135 234.123 108.986 232.793 110.083 231.65C111.18 230.507 112.463 229.608 113.933 228.955C115.403 228.302 117.001 227.975 118.728 227.975C121.038 227.975 123.033 228.477 124.713 229.48C126.393 230.46 127.653 231.767 128.493 233.4L124.888 236.06C124.258 234.847 123.371 233.913 122.228 233.26C121.108 232.583 119.883 232.245 118.553 232.245C117.153 232.245 115.916 232.63 114.843 233.4C113.793 234.17 112.965 235.185 112.358 236.445C111.775 237.705 111.483 239.082 111.483 240.575C111.483 242.138 111.798 243.55 112.428 244.81C113.058 246.07 113.921 247.073 115.018 247.82C116.138 248.543 117.41 248.905 118.833 248.905C121.236 248.905 123.406 247.773 125.343 245.51V243.76H120.338V240.225H129.333V253H125.343V250.2C123.336 252.183 121.026 253.175 118.413 253.175ZM144.054 253.175C142.234 253.175 140.578 252.825 139.084 252.125C137.614 251.425 136.343 250.48 135.269 249.29C134.219 248.077 133.403 246.723 132.819 245.23C132.236 243.713 131.944 242.162 131.944 240.575C131.944 238.918 132.248 237.343 132.854 235.85C133.461 234.333 134.313 232.992 135.409 231.825C136.506 230.635 137.789 229.702 139.259 229.025C140.753 228.325 142.386 227.975 144.159 227.975C145.956 227.975 147.589 228.337 149.059 229.06C150.553 229.783 151.824 230.752 152.874 231.965C153.948 233.178 154.764 234.543 155.324 236.06C155.908 237.553 156.199 239.082 156.199 240.645C156.199 242.278 155.896 243.853 155.289 245.37C154.683 246.863 153.831 248.205 152.734 249.395C151.661 250.562 150.378 251.483 148.884 252.16C147.414 252.837 145.804 253.175 144.054 253.175ZM136.844 240.575C136.844 242.022 137.124 243.375 137.684 244.635C138.268 245.895 139.096 246.922 140.169 247.715C141.266 248.508 142.573 248.905 144.089 248.905C145.653 248.905 146.971 248.497 148.044 247.68C149.118 246.863 149.934 245.813 150.494 244.53C151.054 243.247 151.334 241.928 151.334 240.575C151.334 239.128 151.043 237.775 150.459 236.515C149.876 235.255 149.036 234.24 147.939 233.47C146.866 232.677 145.583 232.28 144.089 232.28C142.526 232.28 141.208 232.688 140.134 233.505C139.061 234.322 138.244 235.372 137.684 236.655C137.124 237.915 136.844 239.222 136.844 240.575Z" fill="white"/>
<path d="M28.085 209.4C28.085 207.883 28.3533 206.39 28.89 204.92C29.45 203.45 30.255 202.12 31.305 200.93C32.355 199.74 33.6383 198.795 35.155 198.095C36.6717 197.372 38.3983 197.01 40.335 197.01C42.5983 197.01 44.57 197.512 46.25 198.515C47.93 199.518 49.1783 200.825 49.995 202.435L46.285 204.99C45.865 204.057 45.3167 203.322 44.64 202.785C43.9633 202.248 43.2283 201.863 42.435 201.63C41.665 201.397 40.9183 201.28 40.195 201.28C38.9817 201.28 37.92 201.525 37.01 202.015C36.1233 202.505 35.3767 203.147 34.77 203.94C34.1633 204.733 33.7083 205.62 33.405 206.6C33.125 207.58 32.985 208.56 32.985 209.54C32.985 211.01 33.2883 212.387 33.895 213.67C34.5017 214.93 35.3533 215.957 36.45 216.75C37.5467 217.543 38.8183 217.94 40.265 217.94C41.0117 217.94 41.7817 217.812 42.575 217.555C43.3917 217.298 44.1383 216.89 44.815 216.33C45.4917 215.77 46.0167 215.047 46.39 214.16L50.345 216.435C49.8317 217.672 49.0267 218.722 47.93 219.585C46.8333 220.425 45.5967 221.078 44.22 221.545C42.8433 221.988 41.4783 222.21 40.125 222.21C38.3517 222.21 36.73 221.848 35.26 221.125C33.8133 220.378 32.5533 219.398 31.48 218.185C30.4067 216.948 29.5667 215.572 28.96 214.055C28.3767 212.515 28.085 210.963 28.085 209.4ZM63.8815 222.175C62.0615 222.175 60.4049 221.825 58.9115 221.125C57.4415 220.425 56.1699 219.48 55.0965 218.29C54.0465 217.077 53.2299 215.723 52.6465 214.23C52.0632 212.713 51.7715 211.162 51.7715 209.575C51.7715 207.918 52.0749 206.343 52.6815 204.85C53.2882 203.333 54.1399 201.992 55.2365 200.825C56.3332 199.635 57.6165 198.702 59.0865 198.025C60.5799 197.325 62.2132 196.975 63.9865 196.975C65.7832 196.975 67.4165 197.337 68.8865 198.06C70.3799 198.783 71.6515 199.752 72.7015 200.965C73.7749 202.178 74.5915 203.543 75.1515 205.06C75.7349 206.553 76.0265 208.082 76.0265 209.645C76.0265 211.278 75.7232 212.853 75.1165 214.37C74.5099 215.863 73.6582 217.205 72.5615 218.395C71.4882 219.562 70.2049 220.483 68.7115 221.16C67.2415 221.837 65.6315 222.175 63.8815 222.175ZM56.6715 209.575C56.6715 211.022 56.9515 212.375 57.5115 213.635C58.0949 214.895 58.9232 215.922 59.9965 216.715C61.0932 217.508 62.3999 217.905 63.9165 217.905C65.4799 217.905 66.7982 217.497 67.8715 216.68C68.9449 215.863 69.7615 214.813 70.3215 213.53C70.8815 212.247 71.1615 210.928 71.1615 209.575C71.1615 208.128 70.8699 206.775 70.2865 205.515C69.7032 204.255 68.8632 203.24 67.7665 202.47C66.6932 201.677 65.4099 201.28 63.9165 201.28C62.3532 201.28 61.0349 201.688 59.9615 202.505C58.8882 203.322 58.0715 204.372 57.5115 205.655C56.9515 206.915 56.6715 208.222 56.6715 209.575ZM79.7316 222V197.15H84.5616V217.765H97.2316V222H79.7316ZM100.171 222V197.15H105.001V217.765H117.671V222H100.171ZM127.366 197.15H132.266L141.401 222H136.431L134.121 215.805H125.441L123.166 222H118.196L127.366 197.15ZM133.246 212.41L129.816 202.155L126.246 212.41H133.246ZM164.146 215.595C164.146 216.995 163.784 218.173 163.061 219.13C162.338 220.063 161.358 220.775 160.121 221.265C158.908 221.755 157.578 222 156.131 222H144.126V197.15H157.426C158.593 197.15 159.596 197.465 160.436 198.095C161.276 198.702 161.929 199.495 162.396 200.475C162.863 201.455 163.096 202.458 163.096 203.485C163.096 204.698 162.793 205.842 162.186 206.915C161.579 207.965 160.693 208.747 159.526 209.26C160.949 209.68 162.069 210.438 162.886 211.535C163.726 212.632 164.146 213.985 164.146 215.595ZM148.956 201.28V207.545H155.396C156.189 207.545 156.878 207.265 157.461 206.705C158.044 206.145 158.336 205.375 158.336 204.395C158.336 203.462 158.068 202.715 157.531 202.155C157.018 201.572 156.376 201.28 155.606 201.28H148.956ZM159.281 214.685C159.281 213.775 159.001 212.993 158.441 212.34C157.881 211.687 157.193 211.36 156.376 211.36H148.956V217.905H156.131C157.018 217.905 157.764 217.59 158.371 216.96C158.978 216.33 159.281 215.572 159.281 214.685Z" fill="white"/>
</g>
<defs>
<filter id="filter0_d" x="0" y="0" width="197" height="261.175" filterUnits="userSpaceOnUse" color-interpolation-filters="sRGB">
<feFlood flood-opacity="0" result="BackgroundImageFix"/>
<feColorMatrix in="SourceAlpha" type="matrix" values="0 0 0 0 0 0 0 0 0 0 0 0 0 0 0 0 0 0 127 0" result="hardAlpha"/>
<feOffset dy="4"/>
<feGaussianBlur stdDeviation="2"/>
<feColorMatrix type="matrix" values="0 0 0 0 0 0 0 0 0 0 0 0 0 0 0 0 0 0 0.25 0"/>
<feBlend mode="normal" in2="BackgroundImageFix" result="effect1_dropShadow"/>
<feBlend mode="normal" in="SourceGraphic" in2="effect1_dropShadow" result="shape"/>
</filter>
<radialGradient id="paint0_radial" cx="0" cy="0" r="1" gradientUnits="userSpaceOnUse" gradientTransform="translate(98.5001 59.591) scale(55.4651)">
<stop offset="0.2584" stop-color="#F0F5FC"/>
<stop offset="0.9927" stop-color="white"/>
</radialGradient>
</defs>
</svg>
