<svg width="57" height="53" viewBox="0 0 57 53" fill="none" xmlns="http://www.w3.org/2000/svg">
<path d="M42.416 19.7611H14.584C13.3594 19.7611 12.3574 18.8295 12.3574 17.6908C12.3574 16.5521 13.3594 15.6205 14.584 15.6205H42.416C43.6406 15.6205 44.6426 16.5521 44.6426 17.6908C44.6426 18.8295 43.6406 19.7611 42.416 19.7611Z" fill="#6A5ACD"/>
<path d="M42.416 37.3795H14.584C13.3594 37.3795 12.3574 36.4478 12.3574 35.3091C12.3574 34.1705 13.3594 33.2388 14.584 33.2388H42.416C43.6406 33.2388 44.6426 34.1705 44.6426 35.3091C44.6426 36.4478 43.6406 37.3795 42.416 37.3795Z" fill="#6A5ACD"/>
<path d="M42.416 28.5703H14.584C13.3594 28.5703 12.3574 27.6387 12.3574 26.5C12.3574 25.3613 13.3594 24.4297 14.584 24.4297H42.416C43.6406 24.4297 44.6426 25.3613 44.6426 26.5C44.6426 27.6387 43.6406 28.5703 42.416 28.5703Z" fill="#6A5ACD"/>
</svg>
