<svg width="48" height="25" viewBox="0 0 48 25" fill="none" xmlns="http://www.w3.org/2000/svg">
<path d="M9.5 24C14.7467 24 19 19.7467 19 14.5C19 9.25329 14.7467 5 9.5 5C4.25329 5 0 9.25329 0 14.5C0 19.7467 4.25329 24 9.5 24Z" fill="#F0F5FC"/>
<path d="M9.49997 21.8889C13.5807 21.8889 16.8889 18.5808 16.8889 14.5C16.8889 10.4192 13.5807 7.11111 9.49997 7.11111C5.4192 7.11111 2.11108 10.4192 2.11108 14.5C2.11108 18.5808 5.4192 21.8889 9.49997 21.8889Z" fill="#6A5ACD"/>
<path d="M10.4987 13.8118H8.50121C8.29875 13.8118 8.12775 13.6408 8.12775 13.4383V11.8886C8.12775 11.6861 8.29875 11.5151 8.50121 11.5151H10.4987C10.7012 11.5151 10.8722 11.6861 10.8722 11.8886C10.8722 12.2384 11.1557 12.5219 11.5055 12.5219C11.8553 12.5219 12.1389 12.2384 12.1389 11.8886C12.1389 10.9842 11.4031 10.2484 10.4987 10.2484H10.1333V9.63473C10.1333 9.28492 9.84978 9.0014 9.49997 9.0014C9.15016 9.0014 8.86664 9.28492 8.86664 9.63473V10.2484H8.50121C7.59681 10.2484 6.86108 10.9842 6.86108 11.8886V13.4383C6.86108 14.3412 7.5947 15.0759 8.4972 15.0782C8.49867 15.0782 8.49994 15.0787 8.50121 15.0787H10.4987C10.7012 15.0787 10.8722 15.2497 10.8722 15.4521V17.0019C10.8722 17.2043 10.7012 17.3755 10.4987 17.3755H8.50121C8.29875 17.3755 8.12775 17.2043 8.12775 17.0019C8.12775 16.6521 7.84423 16.3685 7.49442 16.3685C7.14461 16.3685 6.86108 16.6521 6.86108 17.0019C6.86108 17.9063 7.59681 18.6422 8.50121 18.6422H8.86664V19.3657C8.86664 19.7155 9.15016 19.999 9.49997 19.999C9.84978 19.999 10.1333 19.7155 10.1333 19.3657V18.6422H10.4987C11.4029 18.6422 12.1389 17.9065 12.1389 17.0019V15.4521C12.1389 14.5475 11.4031 13.8118 10.4987 13.8118Z" fill="#F0F5FC"/>
<path d="M38.5 25C43.7467 25 48 20.7467 48 15.5C48 10.2533 43.7467 6 38.5 6C33.2533 6 29 10.2533 29 15.5C29 20.7467 33.2533 25 38.5 25Z" fill="#F0F5FC"/>
<path d="M38.5 22.8889C42.5807 22.8889 45.8889 19.5808 45.8889 15.5C45.8889 11.4192 42.5807 8.11111 38.5 8.11111C34.4192 8.11111 31.1111 11.4192 31.1111 15.5C31.1111 19.5808 34.4192 22.8889 38.5 22.8889Z" fill="#6A5ACD"/>
<path d="M39.4987 14.8118H37.5012C37.2988 14.8118 37.1278 14.6408 37.1278 14.4383V12.8886C37.1278 12.6861 37.2988 12.5151 37.5012 12.5151H39.4987C39.7012 12.5151 39.8722 12.6861 39.8722 12.8886C39.8722 13.2384 40.1557 13.5219 40.5055 13.5219C40.8553 13.5219 41.1389 13.2384 41.1389 12.8886C41.1389 11.9842 40.4031 11.2484 39.4987 11.2484H39.1333V10.6347C39.1333 10.2849 38.8498 10.0014 38.5 10.0014C38.1502 10.0014 37.8666 10.2849 37.8666 10.6347V11.2484H37.5012C36.5968 11.2484 35.8611 11.9842 35.8611 12.8886V14.4383C35.8611 15.3412 36.5947 16.0759 37.4972 16.0782C37.4987 16.0782 37.4999 16.0787 37.5012 16.0787H39.4987C39.7012 16.0787 39.8722 16.2497 39.8722 16.4521V18.0019C39.8722 18.2043 39.7012 18.3755 39.4987 18.3755H37.5012C37.2988 18.3755 37.1278 18.2043 37.1278 18.0019C37.1278 17.6521 36.8442 17.3685 36.4944 17.3685C36.1446 17.3685 35.8611 17.6521 35.8611 18.0019C35.8611 18.9063 36.5968 19.6422 37.5012 19.6422H37.8666V20.3657C37.8666 20.7155 38.1502 20.999 38.5 20.999C38.8498 20.999 39.1333 20.7155 39.1333 20.3657V19.6422H39.4987C40.4029 19.6422 41.1389 18.9065 41.1389 18.0019V16.4521C41.1389 15.5475 40.4031 14.8118 39.4987 14.8118Z" fill="#F0F5FC"/>
<path d="M23.5 19C28.7467 19 33 14.7467 33 9.5C33 4.25329 28.7467 0 23.5 0C18.2533 0 14 4.25329 14 9.5C14 14.7467 18.2533 19 23.5 19Z" fill="#F0F5FC"/>
<path d="M23.5 16.8889C27.5807 16.8889 30.8889 13.5808 30.8889 9.5C30.8889 5.41923 27.5807 2.11111 23.5 2.11111C19.4192 2.11111 16.1111 5.41923 16.1111 9.5C16.1111 13.5808 19.4192 16.8889 23.5 16.8889Z" fill="#6A5ACD"/>
<path d="M24.4987 8.81178H22.5012C22.2988 8.81178 22.1278 8.64078 22.1278 8.43832V6.88856C22.1278 6.6861 22.2988 6.5151 22.5012 6.5151H24.4987C24.7012 6.5151 24.8722 6.6861 24.8722 6.88856C24.8722 7.23837 25.1557 7.52189 25.5055 7.52189C25.8553 7.52189 26.1389 7.23837 26.1389 6.88856C26.1389 5.98416 25.4031 5.24843 24.4987 5.24843H24.1333V4.63473C24.1333 4.28492 23.8498 4.0014 23.5 4.0014C23.1502 4.0014 22.8666 4.28492 22.8666 4.63473V5.24843H22.5012C21.5968 5.24843 20.8611 5.98416 20.8611 6.88856V8.43832C20.8611 9.34124 21.5947 10.0759 22.4972 10.0782C22.4987 10.0782 22.4999 10.0787 22.5012 10.0787H24.4987C24.7012 10.0787 24.8722 10.2497 24.8722 10.4521V12.0019C24.8722 12.2043 24.7012 12.3755 24.4987 12.3755H22.5012C22.2988 12.3755 22.1278 12.2043 22.1278 12.0019C22.1278 11.6521 21.8442 11.3685 21.4944 11.3685C21.1446 11.3685 20.8611 11.6521 20.8611 12.0019C20.8611 12.9063 21.5968 13.6422 22.5012 13.6422H22.8666V14.3657C22.8666 14.7155 23.1502 14.999 23.5 14.999C23.8498 14.999 24.1333 14.7155 24.1333 14.3657V13.6422H24.4987C25.4029 13.6422 26.1389 12.9065 26.1389 12.0019V10.4521C26.1389 9.5475 25.4031 8.81178 24.4987 8.81178Z" fill="#F0F5FC"/>
</svg>
