<svg width="197" height="197" viewBox="0 0 197 197" fill="none" xmlns="http://www.w3.org/2000/svg">
<g filter="url(#filter0_d)">
<path d="M98.311 0.000215323C46.1471 0.0947151 3.90566 42.4936 4.00016 94.689C4.11041 146.869 46.5093 189.094 98.7047 189C150.884 188.89 193.11 146.506 193 94.3268C192.921 42.1314 150.522 -0.110034 98.311 0.000215323Z" fill="white"/>
<path d="M98.5157 4.72513C147.939 4.72513 188.212 44.919 188.275 94.3267C188.369 143.813 148.191 184.165 98.689 184.275H98.5315C49.1081 184.275 8.81965 144.081 8.72515 94.6732C8.6779 70.686 17.9861 48.132 34.9016 31.1378C51.8328 14.1436 74.3553 4.77238 98.3267 4.72513H98.5157ZM98.5157 0.000137329C98.4527 0.000137329 98.3897 0.000137329 98.311 0.000137329C46.1471 0.0946371 3.90566 42.4935 4.00016 94.6889C4.11041 146.806 46.4148 189 98.5315 189C98.5945 189 98.6417 189 98.7047 189C150.884 188.89 193.11 146.506 193 94.3267C192.921 42.1943 150.617 0.000137329 98.5157 0.000137329Z" fill="#6A5ACD"/>
</g>
<defs>
<filter id="filter0_d" x="0" y="0" width="197" height="197" filterUnits="userSpaceOnUse" color-interpolation-filters="sRGB">
<feFlood flood-opacity="0" result="BackgroundImageFix"/>
<feColorMatrix in="SourceAlpha" type="matrix" values="0 0 0 0 0 0 0 0 0 0 0 0 0 0 0 0 0 0 127 0" result="hardAlpha"/>
<feOffset dy="4"/>
<feGaussianBlur stdDeviation="2"/>
<feColorMatrix type="matrix" values="0 0 0 0 0 0 0 0 0 0 0 0 0 0 0 0 0 0 0.25 0"/>
<feBlend mode="normal" in2="BackgroundImageFix" result="effect1_dropShadow"/>
<feBlend mode="normal" in="SourceGraphic" in2="effect1_dropShadow" result="shape"/>
</filter>
</defs>
</svg>
