<svg viewBox="0 0 51 33" fill="none" xmlns="http://www.w3.org/2000/svg">
<g clip-path="url(#clip0)">
<path d="M3.84774 26.4663H47.0824C47.7704 26.4663 48.4303 26.7224 48.9167 27.1783C49.4032 27.6341 49.6765 28.2524 49.6765 28.8971C49.6765 29.5418 49.4032 30.1601 48.9167 30.6159C48.4303 31.0718 47.7704 31.3279 47.0824 31.3279H3.84774C3.15975 31.3279 2.49994 31.0718 2.01345 30.6159C1.52697 30.1601 1.25366 29.5418 1.25366 28.8971C1.25366 28.2524 1.52697 27.6341 2.01345 27.1783C2.49994 26.7224 3.15975 26.4663 3.84774 26.4663Z" fill="#5E49DA"/>
<path d="M7.34131 8.39732L12.9272 1.73692L18.5823 8.39732H32.4174L38.0034 1.76933L43.6585 8.39732L35.8762 21.2158L16.0401 21.475L7.34131 8.39732Z" fill="#5E49DA"/>
<path d="M1.28857 2.49857L13.3943 14.215L25.5 2.49857L37.6057 14.215L49.7114 2.49857L47.152 26.4663H3.91724L1.28857 2.49857Z" fill="#5E49DA"/>
<path d="M25.4999 9.79099L30.7919 14.7498L25.4999 19.7411L20.208 14.7822L25.4999 9.79099Z" fill="#5E49DA"/>
<path d="M49.7113 2.49857L44.3848 7.65188L42.3787 26.4663H47.1518L49.7113 2.49857Z" fill="#5E49DA"/>
<path d="M35.7205 26.4663C36.4085 26.4663 37.0683 26.7224 37.5548 27.1783C38.0412 27.6341 38.3145 28.2524 38.3145 28.8971C38.3145 29.5418 38.0412 30.1601 37.5548 30.6159C37.0683 31.0718 36.4085 31.3279 35.7205 31.3279H47.1517C47.8397 31.3279 48.4995 31.0718 48.986 30.6159C49.4725 30.1601 49.7458 29.5418 49.7458 28.8971C49.7458 28.2524 49.4725 27.6341 48.986 27.1783C48.4995 26.7224 47.8397 26.4663 47.1517 26.4663H35.7205Z" fill="#5E49DA"/>
<path d="M48.5692 25.494L51.0077 2.62822C51.0383 2.37489 50.9832 2.11894 50.8501 1.89658C50.717 1.67423 50.5126 1.49673 50.2659 1.38921C50.0192 1.28169 49.7427 1.24959 49.4754 1.29745C49.2082 1.34531 48.9638 1.4707 48.7768 1.65589L43.7616 6.5175L39.0922 0.991474C38.9714 0.845676 38.8167 0.727582 38.6399 0.646154C38.4631 0.564726 38.2689 0.522102 38.0719 0.521519C37.8753 0.524427 37.6819 0.568075 37.5055 0.649329C37.3291 0.730582 37.174 0.847426 37.0515 0.991474L31.9671 7.01987L26.4331 1.65589C26.1819 1.43008 25.8473 1.30399 25.4992 1.30399C25.1511 1.30399 24.8165 1.43008 24.5653 1.65589L19.0313 7.01987L13.9469 0.991474C13.8203 0.854254 13.6636 0.744183 13.4875 0.66874C13.3115 0.593296 13.1202 0.554247 12.9266 0.554247C12.733 0.554247 12.5416 0.593296 12.3656 0.66874C12.1895 0.744183 12.0329 0.854254 11.9062 0.991474L7.23687 6.5175L2.22165 1.65589C2.03465 1.4707 1.79023 1.34531 1.52299 1.29745C1.25575 1.24959 0.979213 1.28169 0.732513 1.38921C0.485814 1.49673 0.281445 1.67423 0.148325 1.89658C0.0152045 2.11894 -0.0399249 2.37489 -0.00926257 2.62822L2.42917 25.494C1.58732 25.7989 0.88625 26.3708 0.448021 27.1101C0.00979234 27.8494 -0.137831 28.7094 0.0308558 29.5402C0.199542 30.371 0.673852 31.1201 1.3712 31.657C2.06855 32.1939 2.94476 32.4846 3.84727 32.4785H47.082C47.9845 32.4846 48.8607 32.1939 49.558 31.657C50.2554 31.1201 50.7297 30.371 50.8984 29.5402C51.0671 28.7094 50.9195 27.8494 50.4812 27.1101C50.043 26.3708 49.3419 25.7989 48.5001 25.494H48.5692ZM38.0719 3.69777L41.9284 8.26768L37.6049 12.4649L33.783 8.77005L38.0719 3.69777ZM12.9266 3.69777L17.2154 8.77005L13.3935 12.4649L9.07003 8.26768L12.9266 3.69777ZM12.4596 15.0415C12.7108 15.2673 13.0454 15.3934 13.3935 15.3934C13.7416 15.3934 14.0762 15.2673 14.3274 15.0415L25.4992 4.24875L36.6711 15.0577C36.9222 15.2835 37.2568 15.4096 37.6049 15.4096C37.953 15.4096 38.2876 15.2835 38.5388 15.0577L47.9813 5.85308L45.906 25.2995H5.02326L3.01717 5.85308L12.4596 15.0415ZM47.1512 30.0315H3.91645C3.58004 30.0272 3.25896 29.899 3.02269 29.6746C2.78642 29.4501 2.65396 29.1475 2.654 28.8323C2.65854 28.5213 2.79355 28.2246 3.02982 28.0062C3.26608 27.7879 3.5846 27.6655 3.91645 27.6655H47.1512C47.483 27.6655 47.8015 27.7879 48.0378 28.0062C48.274 28.2246 48.4091 28.5213 48.4136 28.8323C48.4159 28.9898 48.385 29.1461 48.3228 29.2924C48.2606 29.4388 48.1683 29.5722 48.051 29.685C47.9338 29.7979 47.794 29.888 47.6396 29.9502C47.4852 30.0125 47.3192 30.0456 47.1512 30.0477V30.0315Z" fill="#E9E9E9"/>
<path d="M6.68413 22.3501C6.73538 22.6678 6.9188 22.9536 7.19426 23.1449C7.46973 23.3362 7.81483 23.4175 8.15411 23.3711C8.3228 23.3512 8.48558 23.3 8.63292 23.2205C8.78026 23.141 8.90922 23.0348 9.01227 22.908C9.11531 22.7813 9.19037 22.6366 9.23306 22.4824C9.27575 22.3282 9.28522 22.1675 9.26092 22.0098C9.21276 21.6896 9.03083 21.4005 8.75515 21.206C8.47948 21.0115 8.13264 20.9276 7.79094 20.9727C7.44923 21.0178 7.14065 21.1883 6.93309 21.4466C6.72552 21.7049 6.63597 22.0299 6.68413 22.3501Z" fill="#E9E9E9"/>
<path d="M6.02686 17.8775C6.04809 18.0355 6.10272 18.1881 6.18756 18.3261C6.27241 18.4642 6.38576 18.585 6.52101 18.6816C6.65625 18.7782 6.81067 18.8485 6.97525 18.8885C7.13983 18.9285 7.31126 18.9374 7.47954 18.9146C7.73439 18.8834 7.97359 18.7819 8.1668 18.6231C8.36 18.4643 8.4985 18.2553 8.56471 18.0226C8.63092 17.7898 8.62186 17.544 8.53868 17.3161C8.4555 17.0882 8.30194 16.8886 8.09751 16.7427C7.89307 16.5967 7.64697 16.511 7.39044 16.4963C7.1339 16.4816 6.8785 16.5387 6.65665 16.6603C6.43479 16.7819 6.25648 16.9625 6.14435 17.1792C6.03223 17.3959 5.99133 17.6389 6.02686 17.8775Z" fill="#E9E9E9"/>
<path d="M6.80542 14.4581C6.97484 14.4363 7.13797 14.3832 7.28543 14.302C7.43288 14.2209 7.56175 14.1132 7.66462 13.9852C7.76749 13.8571 7.84232 13.7113 7.88482 13.5561C7.92731 13.4009 7.93663 13.2393 7.91222 13.0807C7.90185 12.9128 7.85443 12.7489 7.77297 12.5991C7.69151 12.4493 7.57778 12.317 7.43896 12.2105C7.30014 12.104 7.13925 12.0257 6.96647 11.9804C6.79368 11.9352 6.61276 11.924 6.43514 11.9476C6.25751 11.9712 6.08705 12.0291 5.93452 12.1176C5.78199 12.2061 5.65072 12.3233 5.54899 12.4618C5.44726 12.6002 5.37729 12.757 5.34351 12.9221C5.30973 13.0872 5.31287 13.2571 5.35273 13.421C5.40001 13.7384 5.57919 14.0255 5.85126 14.2197C6.12333 14.414 6.46626 14.4997 6.80542 14.4581Z" fill="#E9E9E9"/>
<path d="M42.7938 23.3711C43.1331 23.4175 43.4782 23.3362 43.7536 23.1449C44.0291 22.9536 44.2125 22.6678 44.2638 22.3501C44.2876 22.1916 44.2779 22.0302 44.2352 21.8752C44.1925 21.7201 44.1176 21.5745 44.0148 21.4466C43.912 21.3187 43.7834 21.211 43.6362 21.1297C43.489 21.0484 43.3261 20.995 43.157 20.9727C42.9878 20.9503 42.8155 20.9594 42.6501 20.9995C42.4846 21.0395 42.3292 21.1097 42.1927 21.206C42.0562 21.3023 41.9413 21.4228 41.8545 21.5608C41.7678 21.6987 41.7108 21.8513 41.687 22.0098C41.6627 22.1675 41.6721 22.3282 41.7148 22.4824C41.7575 22.6366 41.8326 22.7813 41.9356 22.908C42.0387 23.0348 42.1676 23.141 42.315 23.2205C42.4623 23.3 42.6251 23.3512 42.7938 23.3711Z" fill="#E9E9E9"/>
<path d="M43.5202 18.9146C43.6885 18.9374 43.8599 18.9285 44.0245 18.8885C44.189 18.8485 44.3435 18.7782 44.4787 18.6816C44.614 18.585 44.7273 18.4642 44.8121 18.3261C44.897 18.1881 44.9516 18.0355 44.9729 17.8775C45.0224 17.5595 44.9356 17.2362 44.7315 16.978C44.5273 16.7199 44.2224 16.548 43.8833 16.5C43.7141 16.4777 43.5419 16.4868 43.3765 16.5268C43.211 16.5668 43.0556 16.637 42.9191 16.7333C42.7826 16.8296 42.6677 16.9502 42.5809 17.0881C42.4942 17.226 42.4372 17.3786 42.4134 17.5371C42.3895 17.6957 42.3992 17.8571 42.442 18.0121C42.4847 18.1671 42.5596 18.3128 42.6623 18.4407C42.7651 18.5686 42.8938 18.6763 43.0409 18.7576C43.1881 18.8389 43.351 18.8923 43.5202 18.9146Z" fill="#E9E9E9"/>
<path d="M44.1948 14.4581C44.5339 14.4997 44.8769 14.414 45.149 14.2197C45.421 14.0255 45.6002 13.7384 45.6475 13.421C45.6873 13.2571 45.6905 13.0872 45.6567 12.9221C45.6229 12.757 45.553 12.6002 45.4512 12.4618C45.3495 12.3233 45.2182 12.2061 45.0657 12.1176C44.9132 12.0291 44.7427 11.9712 44.5651 11.9476C44.3874 11.924 44.2065 11.9352 44.0337 11.9804C43.861 12.0257 43.7001 12.104 43.5612 12.2105C43.4224 12.317 43.3087 12.4493 43.2272 12.5991C43.1458 12.7489 43.0984 12.9128 43.088 13.0807C43.0636 13.2393 43.0729 13.4009 43.1154 13.5561C43.1579 13.7113 43.2327 13.8571 43.3356 13.9852C43.4384 14.1132 43.5673 14.2209 43.7148 14.302C43.8622 14.3832 44.0254 14.4363 44.1948 14.4581Z" fill="#E9E9E9"/>
<path d="M20.292 22C20.292 21.2133 20.3786 20.5133 20.552 19.9C20.7386 19.2867 21.0586 18.7333 21.512 18.24C21.9653 17.7467 22.6053 17.2667 23.432 16.8C24.1653 16.4133 24.7786 16.0867 25.272 15.82C25.7653 15.5533 26.1386 15.3 26.392 15.06C26.6586 14.8067 26.792 14.5133 26.792 14.18C26.792 13.78 26.632 13.44 26.312 13.16C25.992 12.8667 25.5386 12.72 24.952 12.72C24.312 12.72 23.7586 12.8733 23.292 13.18C22.8386 13.4867 22.4453 13.84 22.112 14.24L20.412 12.28C20.652 12.0267 21.012 11.7533 21.492 11.46C21.972 11.1667 22.5453 10.9133 23.212 10.7C23.8786 10.4867 24.612 10.38 25.412 10.38C26.772 10.38 27.8253 10.7 28.572 11.34C29.332 11.9667 29.712 12.78 29.712 13.78C29.712 14.4067 29.5653 14.94 29.272 15.38C28.992 15.8067 28.6386 16.1733 28.212 16.48C27.7986 16.7733 27.3986 17.0333 27.012 17.26C26.1586 17.6867 25.4853 18.06 24.992 18.38C24.512 18.7 24.1253 19.1 23.832 19.58H29.932V22H20.292Z" fill="#E3E3E3"/>
</g>
<defs>
<clipPath id="clip0">
<rect width="51" height="33" fill="white"/>
</clipPath>
</defs>
</svg>
