<svg width="25" height="25" viewBox="0 0 25 25" fill="none" xmlns="http://www.w3.org/2000/svg">
<path d="M12.5 24.2188C12.331 24.2188 12.1665 24.1639 12.0312 24.0625L8.90625 21.7188C8.80922 21.646 8.73047 21.5516 8.67623 21.4432C8.62199 21.3347 8.59375 21.2151 8.59375 21.0938V13.6485C7.3395 12.8104 6.388 11.5912 5.8798 10.171C5.3716 8.75069 5.33363 7.20463 5.7715 5.76112C6.20937 4.31761 7.09986 3.05318 8.31146 2.15459C9.52307 1.256 10.9915 0.770874 12.5 0.770874C14.0085 0.770874 15.4769 1.256 16.6885 2.15459C17.9001 3.05318 18.7906 4.31761 19.2285 5.76112C19.6664 7.20463 19.6284 8.75069 19.1202 10.171C18.612 11.5912 17.6605 12.8104 16.4062 13.6485V14.8438C16.4068 14.9466 16.3871 15.0485 16.3483 15.1437C16.3094 15.2389 16.2521 15.3255 16.1797 15.3985L15.1641 16.4063L16.1797 17.4141C16.2529 17.4867 16.311 17.5731 16.3507 17.6683C16.3904 17.7635 16.4108 17.8656 16.4108 17.9688C16.4108 18.0719 16.3904 18.174 16.3507 18.2692C16.311 18.3644 16.2529 18.4508 16.1797 18.5235L15.1641 19.5313L16.1797 20.5391C16.259 20.6184 16.3203 20.7139 16.3594 20.8191C16.3985 20.9242 16.4145 21.0366 16.4062 21.1485C16.3982 21.2604 16.3661 21.3693 16.3122 21.4677C16.2582 21.5661 16.1837 21.6517 16.0938 21.7188L12.9688 24.0625C12.8335 24.1639 12.669 24.2188 12.5 24.2188ZM10.1563 20.7032L12.5 22.461L14.4375 21.0078L13.5078 20.086C13.4346 20.0133 13.3765 19.9269 13.3368 19.8317C13.2971 19.7365 13.2767 19.6344 13.2767 19.5313C13.2767 19.4281 13.2971 19.326 13.3368 19.2308C13.3765 19.1356 13.4346 19.0492 13.5078 18.9766L14.5234 17.9688L13.5078 16.961C13.4346 16.8883 13.3765 16.8019 13.3368 16.7067C13.2971 16.6115 13.2767 16.5094 13.2767 16.4063C13.2767 16.3031 13.2971 16.201 13.3368 16.1058C13.3765 16.0106 13.4346 15.9242 13.5078 15.8516L14.8438 14.5235V13.2188C14.8446 13.0824 14.8811 12.9487 14.9496 12.8308C15.0181 12.713 15.1163 12.6151 15.2344 12.5469C16.2769 11.945 17.0918 11.0158 17.5525 9.90363C18.0132 8.7914 18.094 7.55825 17.7824 6.39541C17.4708 5.23257 16.7842 4.20504 15.8292 3.47217C14.8741 2.73931 13.7039 2.34207 12.5 2.34207C11.2961 2.34207 10.1259 2.73931 9.17084 3.47217C8.21575 4.20504 7.52918 5.23257 7.21759 6.39541C6.90601 7.55825 6.98684 8.7914 7.44753 9.90363C7.90823 11.0158 8.72305 11.945 9.76563 12.5469C9.8837 12.6151 9.98188 12.713 10.0504 12.8308C10.1189 12.9487 10.1554 13.0824 10.1563 13.2188V20.7032Z" fill="#A5A2A2"/>
<path d="M12.5 7.03125C12.9315 7.03125 13.2812 6.68147 13.2812 6.25C13.2812 5.81853 12.9315 5.46875 12.5 5.46875C12.0685 5.46875 11.7188 5.81853 11.7188 6.25C11.7188 6.68147 12.0685 7.03125 12.5 7.03125Z" fill="#A5A2A2"/>
<path d="M12.5 7.8125C12.191 7.8125 11.8889 7.72086 11.6319 7.54917C11.375 7.37748 11.1747 7.13345 11.0564 6.84794C10.9382 6.56243 10.9072 6.24827 10.9675 5.94517C11.0278 5.64208 11.1766 5.36367 11.3951 5.14515C11.6137 4.92663 11.8921 4.77781 12.1952 4.71752C12.4983 4.65723 12.8124 4.68818 13.0979 4.80644C13.3835 4.9247 13.6275 5.12497 13.7992 5.38192C13.9709 5.63887 14.0625 5.94097 14.0625 6.25C14.0625 6.6644 13.8979 7.06183 13.6049 7.35486C13.3118 7.64788 12.9144 7.8125 12.5 7.8125Z" fill="#A5A2A2"/>
</svg>
