<svg width="19" height="23" viewBox="0 0 19 23" fill="none" xmlns="http://www.w3.org/2000/svg">
<path d="M9.5 11.5C10.5816 11.5 11.6389 11.1793 12.5383 10.5784C13.4376 9.97744 14.1386 9.12334 14.5525 8.12405C14.9664 7.12477 15.0747 6.02519 14.8637 4.96435C14.6527 3.90352 14.1318 2.92908 13.367 2.16426C12.6022 1.39944 11.6277 0.878596 10.5669 0.667583C9.50607 0.45657 8.40648 0.56487 7.4072 0.978786C6.40792 1.3927 5.55381 2.09365 4.9529 2.99298C4.35199 3.89231 4.03125 4.94964 4.03125 6.03125C4.03125 7.48166 4.60742 8.87265 5.63301 9.89824C6.6586 10.9238 8.0496 11.5 9.5 11.5ZM9.5 2.125C10.2726 2.125 11.0278 2.3541 11.6702 2.78332C12.3126 3.21255 12.8133 3.82262 13.1089 4.53639C13.4046 5.25017 13.4819 6.03559 13.3312 6.79332C13.1805 7.55106 12.8084 8.24709 12.2621 8.79339C11.7158 9.33969 11.0198 9.71172 10.2621 9.86244C9.50433 10.0132 8.71892 9.93581 8.00514 9.64016C7.29137 9.3445 6.6813 8.84383 6.25207 8.20145C5.82285 7.55907 5.59375 6.80384 5.59375 6.03125C5.59375 4.99525 6.0053 4.00168 6.73786 3.26912C7.47043 2.53655 8.464 2.125 9.5 2.125Z" fill="#A5A2A2"/>
<path d="M10.2812 13.0625H8.71875C6.43955 13.0625 4.25369 13.9679 2.64205 15.5796C1.03041 17.1912 0.125 19.377 0.125 21.6562C0.125 21.8635 0.20731 22.0622 0.353823 22.2087C0.500336 22.3552 0.69905 22.4375 0.90625 22.4375H18.0938C18.301 22.4375 18.4997 22.3552 18.6462 22.2087C18.7927 22.0622 18.875 21.8635 18.875 21.6562C18.875 19.377 17.9696 17.1912 16.358 15.5796C14.7463 13.9679 12.5605 13.0625 10.2812 13.0625ZM1.73438 20.875C1.92648 19.1568 2.74493 17.5695 4.03334 16.4166C5.32176 15.2636 6.9898 14.6258 8.71875 14.625H10.2812C12.0102 14.6258 13.6782 15.2636 14.9667 16.4166C16.2551 17.5695 17.0735 19.1568 17.2656 20.875H1.73438Z" fill="#A5A2A2"/>
</svg>
