<svg width="26" height="26" viewBox="0 0 26 26" fill="none" xmlns="http://www.w3.org/2000/svg">
<path d="M13 23.5625C10.9109 23.5625 8.86879 22.943 7.13179 21.7824C5.3948 20.6218 4.04098 18.9721 3.24153 17.0421C2.44208 15.1121 2.2329 12.9883 2.64046 10.9394C3.04802 8.89044 4.054 7.00838 5.53119 5.53119C7.00838 4.054 8.89044 3.04802 10.9394 2.64046C12.9883 2.2329 15.1121 2.44208 17.0421 3.24153C18.9721 4.04098 20.6218 5.3948 21.7824 7.13179C22.943 8.86879 23.5625 10.9109 23.5625 13C23.5625 15.8014 22.4497 18.488 20.4688 20.4688C18.488 22.4497 15.8014 23.5625 13 23.5625V23.5625ZM13 4.0625C11.2323 4.0625 9.50436 4.58668 8.0346 5.56874C6.56483 6.55081 5.41929 7.94666 4.74283 9.57977C4.06637 11.2129 3.88938 13.0099 4.23424 14.7436C4.57909 16.4773 5.43031 18.0698 6.68024 19.3198C7.93017 20.5697 9.52268 21.4209 11.2564 21.7658C12.9901 22.1106 14.7871 21.9336 16.4202 21.2572C18.0534 20.5807 19.4492 19.4352 20.4313 17.9654C21.4133 16.4956 21.9375 14.7677 21.9375 13C21.9375 10.6296 20.9959 8.35634 19.3198 6.68024C17.6437 5.00413 15.3704 4.0625 13 4.0625Z" fill="#5E49DA"/>
<path d="M13 18.6875C12.7845 18.6875 12.5778 18.6019 12.4255 18.4495C12.2731 18.2972 12.1875 18.0905 12.1875 17.875V8.125C12.1875 7.90951 12.2731 7.70285 12.4255 7.55048C12.5778 7.3981 12.7845 7.3125 13 7.3125C13.2155 7.3125 13.4222 7.3981 13.5745 7.55048C13.7269 7.70285 13.8125 7.90951 13.8125 8.125V17.875C13.8125 18.0905 13.7269 18.2972 13.5745 18.4495C13.4222 18.6019 13.2155 18.6875 13 18.6875Z" fill="#5E49DA"/>
<path d="M17.875 13.8125H8.125C7.90951 13.8125 7.70285 13.7269 7.55048 13.5745C7.3981 13.4222 7.3125 13.2155 7.3125 13C7.3125 12.7845 7.3981 12.5778 7.55048 12.4255C7.70285 12.2731 7.90951 12.1875 8.125 12.1875H17.875C18.0905 12.1875 18.2972 12.2731 18.4495 12.4255C18.6019 12.5778 18.6875 12.7845 18.6875 13C18.6875 13.2155 18.6019 13.4222 18.4495 13.5745C18.2972 13.7269 18.0905 13.8125 17.875 13.8125Z" fill="#5E49DA"/>
</svg>
