<svg width="26" height="26" viewBox="0 0 26 26" fill="none" xmlns="http://www.w3.org/2000/svg">
<path d="M13 18.6875C12.7845 18.6875 12.5778 18.6019 12.4255 18.4495C12.2731 18.2972 12.1875 18.0905 12.1875 17.875V8.125C12.1875 7.90951 12.2731 7.70285 12.4255 7.55048C12.5778 7.3981 12.7845 7.3125 13 7.3125C13.2155 7.3125 13.4222 7.3981 13.5745 7.55048C13.7269 7.70285 13.8125 7.90951 13.8125 8.125V17.875C13.8125 18.0905 13.7269 18.2972 13.5745 18.4495C13.4222 18.6019 13.2155 18.6875 13 18.6875Z" fill="#5E49DA"/>
<path d="M17.875 13.8125H8.125C7.90951 13.8125 7.70285 13.7269 7.55048 13.5745C7.3981 13.4222 7.3125 13.2155 7.3125 13C7.3125 12.7845 7.3981 12.5778 7.55048 12.4255C7.70285 12.2731 7.90951 12.1875 8.125 12.1875H17.875C18.0905 12.1875 18.2972 12.2731 18.4495 12.4255C18.6019 12.5778 18.6875 12.7845 18.6875 13C18.6875 13.2155 18.6019 13.4222 18.4495 13.5745C18.2972 13.7269 18.0905 13.8125 17.875 13.8125Z" fill="#5E49DA"/>
</svg>
