<svg width="28" height="28" viewBox="0 0 28 28" fill="none" xmlns="http://www.w3.org/2000/svg">
<g clip-path="url(#clip0)">
<path d="M23.8988 4.10109L27.611 0.388879H17.711V10.2889L21.4243 6.57556C25.5216 10.6716 25.5216 17.3273 21.4243 21.4233C20.176 22.674 18.6781 23.5548 17.0938 24.0191V27.6333C19.5834 27.0769 21.9563 25.8425 23.8999 23.9001C29.3668 18.4274 29.3668 9.57259 23.8988 4.10109ZM6.57661 21.4233C2.4794 17.3273 2.4794 10.6715 6.57661 6.57551C7.82491 5.32486 9.32172 4.44525 10.9072 3.98092V0.366699C8.41758 0.923163 6.04468 2.15749 4.10102 4.09992C-1.36701 9.57147 -1.36701 18.4262 4.10102 23.8989L0.388757 27.6111H10.2888V17.7111L6.57661 21.4233Z" fill="white"/>
</g>
<defs>
<clipPath id="clip0">
<rect width="28" height="28" fill="white"/>
</clipPath>
</defs>
</svg>
