<svg width="22" height="22" viewBox="0 0 22 22" fill="none" xmlns="http://www.w3.org/2000/svg">
<path d="M11 22C17.0751 22 22 17.0751 22 11C22 4.92487 17.0751 0 11 0C4.92487 0 0 4.92487 0 11C0 17.0751 4.92487 22 11 22Z" fill="#5E49DA"/>
<path d="M10.9999 19.5556C15.725 19.5556 19.5554 15.7251 19.5554 11C19.5554 6.2749 15.725 2.44445 10.9999 2.44445C6.27479 2.44445 2.44434 6.2749 2.44434 11C2.44434 15.7251 6.27479 19.5556 10.9999 19.5556Z" fill="#E7EDF7"/>
<path d="M12.1564 10.2031H9.84343C9.609 10.2031 9.411 10.0051 9.411 9.77069V7.97622C9.411 7.7418 9.609 7.5438 9.84343 7.5438H12.1564C12.3908 7.5438 12.5888 7.7418 12.5888 7.97622C12.5888 8.38127 12.9171 8.70956 13.3221 8.70956C13.7272 8.70956 14.0554 8.38127 14.0554 7.97622C14.0554 6.92902 13.2036 6.07713 12.1564 6.07713H11.7332V5.36653C11.7332 4.96149 11.4049 4.6332 10.9999 4.6332C10.5948 4.6332 10.2666 4.96149 10.2666 5.36653V6.07713H9.84343C8.79623 6.07713 7.94434 6.92902 7.94434 7.97622V9.77069C7.94434 10.8162 8.79378 11.6668 9.83878 11.6695C9.84049 11.6695 9.84196 11.67 9.84343 11.67H12.1564C12.3908 11.67 12.5888 11.868 12.5888 12.1024V13.8969C12.5888 14.1313 12.3908 14.3296 12.1564 14.3296H9.84343C9.609 14.3296 9.411 14.1313 9.411 13.8969C9.411 13.4919 9.08271 13.1636 8.67767 13.1636C8.27262 13.1636 7.94434 13.4919 7.94434 13.8969C7.94434 14.9441 8.79623 15.7962 9.84343 15.7962H10.2666V16.634C10.2666 17.039 10.5948 17.3673 10.9999 17.3673C11.4049 17.3673 11.7332 17.039 11.7332 16.634V15.7962H12.1564C13.2033 15.7962 14.0554 14.9444 14.0554 13.8969V12.1024C14.0554 11.055 13.2036 10.2031 12.1564 10.2031Z" fill="#5E49DA"/>
</svg>
