<svg width="18" height="18" viewBox="0 0 18 18" fill="none" xmlns="http://www.w3.org/2000/svg">
<path d="M5.4 5.4V1.8C5.4 0.81 6.21 0 7.2 0H16.2C16.6774 0 17.1352 0.189642 17.4728 0.527208C17.8104 0.864773 18 1.32261 18 1.8V10.8C18 11.2774 17.8104 11.7352 17.4728 12.0728C17.1352 12.4104 16.6774 12.6 16.2 12.6H12.6V16.2C12.6 16.6774 12.4104 17.1352 12.0728 17.4728C11.7352 17.8104 11.2774 18 10.8 18H1.8C1.32261 18 0.864773 17.8104 0.527208 17.4728C0.189642 17.1352 0 16.6774 0 16.2V7.2C0 6.21 0.81 5.4 1.8 5.4H5.4ZM7.2 5.4H10.8C11.2774 5.4 11.7352 5.58964 12.0728 5.92721C12.4104 6.26477 12.6 6.72261 12.6 7.2V10.8H16.2V1.8H7.2V5.4ZM1.8 7.2V16.2H10.8V7.2H1.8Z" fill="#5E49DA"/>
</svg>
