<svg width="24" height="22" viewBox="0 0 24 22" fill="none" xmlns="http://www.w3.org/2000/svg">
<path d="M17.0918 9.98438H11.5547V4.65234C11.5547 4.09375 11.0801 3.63672 10.5 3.63672C9.91992 3.63672 9.44531 4.09375 9.44531 4.65234V9.98438H3.9082C3.32813 9.98438 2.85352 10.4414 2.85352 11C2.85352 11.5586 3.32813 12.0156 3.9082 12.0156H9.44531V17.3477C9.44531 17.9062 9.91992 18.3633 10.5 18.3633C11.0801 18.3633 11.5547 17.9062 11.5547 17.3477V12.0156H17.0918C17.6719 12.0156 18.1465 11.5586 18.1465 11C18.1465 10.4414 17.6719 9.98438 17.0918 9.98438Z" fill="#5E49DA"/>
</svg>
