<svg width="21" height="23" viewBox="0 0 21 23" fill="none" xmlns="http://www.w3.org/2000/svg">
<g clip-path="url(#clip0)">
<path d="M15.3462 10.7813L12.8008 7.99346C12.5446 7.71277 12.5446 7.25769 12.8008 6.977C13.0571 6.69631 13.4726 6.69631 13.7289 6.977L17.4412 11.0429C17.6975 11.3235 17.6975 11.7786 17.4412 12.0593L13.7289 16.1252C13.4726 16.4059 13.0571 16.4059 12.8008 16.1252C12.5446 15.8445 12.5446 15.3894 12.8008 15.1087L15.4395 12.2188H0.844939C0.482675 12.2188 0.186523 11.897 0.186523 11.5C0.186523 11.1003 0.481306 10.7813 0.844939 10.7813H15.3462Z" fill="#6A5ACD"/>
<path d="M20.3438 1.4375L19.6875 0.71875V5.70367V17.2346V22.2812L20.3438 21.5625H8.53125C8.16881 21.5625 7.875 21.8843 7.875 22.2812C7.875 22.6782 8.16881 23 8.53125 23H20.3438C20.7062 23 21 22.6782 21 22.2812V17.2346V5.70367V0.71875C21 0.321795 20.7062 0 20.3438 0L8.53125 0C8.16881 0 7.875 0.321795 7.875 0.71875C7.875 1.1157 8.16881 1.4375 8.53125 1.4375H20.3438Z" fill="#6A5ACD"/>
</g>
<defs>
<clipPath id="clip0">
<rect width="21" height="23" fill="white"/>
</clipPath>
</defs>
</svg>
