<svg width="18" height="22" viewBox="0 0 18 22" fill="none" xmlns="http://www.w3.org/2000/svg">
<path d="M11.5805 13.7413L13.7616 11.4802H5.61842V9.73413H13.7616L11.5805 7.47302L12.7763 6.24206L16.9868 10.6071L12.7763 14.9722L11.5805 13.7413ZM15.7237 2.75C16.1704 2.75 16.5987 2.93396 16.9146 3.2614C17.2305 3.58885 17.4079 4.03296 17.4079 4.49603V8.57302L15.7237 6.82698V4.49603H3.93421V16.7183H15.7237V14.3873L17.4079 12.6413V16.7183C17.4079 17.1813 17.2305 17.6254 16.9146 17.9529C16.5987 18.2803 16.1704 18.4643 15.7237 18.4643H3.93421C2.99947 18.4643 2.25 17.6786 2.25 16.7183V4.49603C2.25 3.52698 2.99947 2.75 3.93421 2.75H15.7237Z" fill="#FF0000" fill-opacity="0.58"/>
</svg>
