<svg width="71" height="88" viewBox="0 0 71 88" fill="none" xmlns="http://www.w3.org/2000/svg">
<path d="M35.2889 19.1981C53.7419 19.1981 68.7783 34.2052 68.8018 52.6523C68.8371 71.1288 53.836 86.1947 35.3536 86.2358H35.2948C16.8418 86.2358 1.79949 71.2288 1.76421 52.7817C1.74657 43.8257 5.22194 35.4048 11.5376 29.0597C17.8591 22.7147 26.2682 19.2158 35.2183 19.1981H35.2889ZM35.2889 17.434C35.2654 17.434 35.2418 17.434 35.2124 17.434C15.7363 17.4692 -0.0352239 33.2996 5.90843e-05 52.7875C0.0412225 72.2461 15.8362 88 35.2948 88C35.3183 88 35.3359 88 35.3595 88C54.8415 87.9588 70.6071 72.1344 70.566 52.6523C70.5366 33.1878 54.7416 17.434 35.2889 17.434Z" fill="#5E49DA"/>
<path d="M25.9538 17.2394H45.4114C45.721 17.2394 46.018 17.3624 46.2369 17.5813C46.4558 17.8003 46.5788 18.0972 46.5788 18.4068C46.5788 18.7165 46.4558 19.0134 46.2369 19.2324C46.018 19.4513 45.721 19.5743 45.4114 19.5743H25.9538C25.6442 19.5743 25.3473 19.4513 25.1283 19.2324C24.9094 19.0134 24.7864 18.7165 24.7864 18.4068C24.7864 18.0972 24.9094 17.8003 25.1283 17.5813C25.3473 17.3624 25.6442 17.2394 25.9538 17.2394Z" fill="#E7EDF7"/>
<path d="M27.5261 8.56132L30.04 5.3625L32.5851 8.56132H38.8115L41.3254 5.37806L43.8705 8.56132L40.3681 14.7177L31.441 14.8422L27.5261 8.56132Z" fill="#E7EDF7"/>
<path d="M24.802 5.7283L30.2501 11.3554L35.6982 5.7283L41.1463 11.3554L46.5945 5.7283L45.4426 17.2394H25.985L24.802 5.7283Z" fill="#E7EDF7"/>
<path d="M35.6983 9.23066L38.0799 11.6123L35.6983 14.0094L33.3167 11.6278L35.6983 9.23066Z" fill="#E7EDF7"/>
<path d="M46.5944 5.7283L44.1973 8.2033L43.2944 17.2394H45.4425L46.5944 5.7283Z" fill="#F0F5FC"/>
<path d="M40.2979 17.2394C40.6075 17.2394 40.9044 17.3624 41.1234 17.5813C41.3423 17.8003 41.4653 18.0972 41.4653 18.4068C41.4653 18.7165 41.3423 19.0134 41.1234 19.2324C40.9044 19.4513 40.6075 19.5743 40.2979 19.5743H45.4424C45.7521 19.5743 46.049 19.4513 46.2679 19.2324C46.4869 19.0134 46.6099 18.7165 46.6099 18.4068C46.6099 18.0972 46.4869 17.8003 46.2679 17.5813C46.049 17.3624 45.7521 17.2394 45.4424 17.2394H40.2979Z" fill="#6A5ACD" fill-opacity="0.5"/>
<path d="M46.0808 16.7724L47.1782 5.79056C47.192 5.6689 47.1672 5.54597 47.1073 5.43918C47.0474 5.33239 46.9554 5.24714 46.8444 5.1955C46.7334 5.14386 46.6089 5.12844 46.4887 5.15143C46.3684 5.17441 46.2584 5.23464 46.1742 5.32358L43.9172 7.65849L41.8157 5.00448C41.7614 4.93445 41.6918 4.87774 41.6122 4.83863C41.5326 4.79952 41.4452 4.77905 41.3565 4.77877C41.2681 4.78017 41.181 4.80113 41.1016 4.84015C41.0223 4.87918 40.9525 4.9353 40.8974 5.00448L38.6091 7.89976L36.1186 5.32358C36.0055 5.21513 35.8549 5.15457 35.6983 5.15457C35.5416 5.15457 35.3911 5.21513 35.278 5.32358L32.7874 7.89976L30.4992 5.00448C30.4422 4.93857 30.3717 4.88571 30.2925 4.84948C30.2133 4.81324 30.1272 4.79449 30.04 4.79449C29.9529 4.79449 29.8668 4.81324 29.7876 4.84948C29.7083 4.88571 29.6378 4.93857 29.5808 5.00448L27.4794 7.65849L25.2224 5.32358C25.1382 5.23464 25.0282 5.17441 24.9079 5.15143C24.7877 5.12844 24.6632 5.14386 24.5522 5.1955C24.4411 5.24714 24.3492 5.33239 24.2893 5.43918C24.2294 5.54597 24.2045 5.6689 24.2183 5.79056L25.3157 16.7724C24.9369 16.9188 24.6214 17.1935 24.4241 17.5486C24.2269 17.9037 24.1605 18.3167 24.2364 18.7157C24.3123 19.1147 24.5258 19.4745 24.8396 19.7323C25.1535 19.9902 25.5478 20.1298 25.954 20.1269H45.4115C45.8177 20.1298 46.212 19.9902 46.5258 19.7323C46.8397 19.4745 47.0531 19.1147 47.1291 18.7157C47.205 18.3167 47.1385 17.9037 46.9413 17.5486C46.7441 17.1935 46.4286 16.9188 46.0497 16.7724H46.0808ZM41.3565 6.30424L43.0922 8.49905L41.1464 10.5149L39.4264 8.74033L41.3565 6.30424ZM30.04 6.30424L31.9702 8.74033L30.2502 10.5149L28.3044 8.49905L30.04 6.30424ZM29.8299 11.7524C29.9429 11.8608 30.0935 11.9214 30.2502 11.9214C30.4068 11.9214 30.5574 11.8608 30.6705 11.7524L35.6983 6.56886L40.7261 11.7601C40.8392 11.8686 40.9898 11.9291 41.1464 11.9291C41.3031 11.9291 41.4536 11.8686 41.5667 11.7601L45.8162 7.33938L44.8823 16.679H26.4832L25.5804 7.33938L29.8299 11.7524ZM45.4426 18.9517H25.9851C25.8337 18.9496 25.6892 18.888 25.5829 18.7802C25.4765 18.6724 25.4169 18.5271 25.4169 18.3757C25.419 18.2264 25.4797 18.0839 25.5861 17.979C25.6924 17.8741 25.8357 17.8153 25.9851 17.8153H45.4426C45.592 17.8153 45.7353 17.8741 45.8417 17.979C45.948 18.0839 46.0087 18.2264 46.0108 18.3757C46.0118 18.4513 45.9979 18.5264 45.9699 18.5967C45.9419 18.667 45.9004 18.7311 45.8476 18.7853C45.7949 18.8395 45.7319 18.8827 45.6625 18.9126C45.593 18.9425 45.5183 18.9584 45.4426 18.9594V18.9517Z" fill="#5E49DA"/>
<path d="M35.2858 14.4064C35.3953 14.5157 35.5436 14.5771 35.6983 14.5771C35.853 14.5771 36.0014 14.5157 36.1108 14.4064L38.4924 12.0248C38.5475 11.9711 38.5913 11.907 38.6212 11.8361C38.651 11.7653 38.6664 11.6891 38.6664 11.6123C38.6664 11.5354 38.651 11.4593 38.6212 11.3884C38.5913 11.3176 38.5475 11.2534 38.4924 11.1998L36.1108 8.81815C36.0572 8.76308 35.993 8.71932 35.9222 8.68943C35.8513 8.65955 35.7752 8.64415 35.6983 8.64415C35.6214 8.64415 35.5453 8.65955 35.4745 8.68943C35.4036 8.71932 35.3395 8.76308 35.2858 8.81815L32.9042 11.1998C32.8492 11.2534 32.8054 11.3176 32.7755 11.3884C32.7456 11.4593 32.7302 11.5354 32.7302 11.6123C32.7302 11.6891 32.7456 11.7653 32.7755 11.8361C32.8054 11.907 32.8492 11.9711 32.9042 12.0248L35.2858 14.4064ZM35.6983 10.0557L37.2549 11.6123L35.6983 13.1689L34.1417 11.6123L35.6983 10.0557Z" fill="#5E49DA"/>
<path d="M27.2303 15.2625C27.2534 15.4151 27.336 15.5523 27.4599 15.6442C27.5839 15.7361 27.7392 15.7751 27.8919 15.7528C27.9678 15.7433 28.0411 15.7187 28.1074 15.6805C28.1737 15.6423 28.2317 15.5913 28.2781 15.5304C28.3245 15.4696 28.3583 15.4001 28.3775 15.326C28.3967 15.2519 28.401 15.1748 28.39 15.0991C28.3683 14.9453 28.2865 14.8064 28.1624 14.713C28.0383 14.6196 27.8822 14.5793 27.7285 14.6009C27.5747 14.6226 27.4358 14.7045 27.3424 14.8286C27.249 14.9526 27.2087 15.1087 27.2303 15.2625Z" fill="#6A5ACD" fill-opacity="0.5"/>
<path d="M26.9346 13.1144C26.9441 13.1903 26.9687 13.2636 27.0069 13.3299C27.0451 13.3962 27.0961 13.4542 27.1569 13.5006C27.2178 13.547 27.2873 13.5807 27.3614 13.6C27.4354 13.6192 27.5126 13.6234 27.5883 13.6125C27.703 13.5975 27.8107 13.5488 27.8976 13.4725C27.9846 13.3962 28.0469 13.2958 28.0767 13.1841C28.1065 13.0723 28.1024 12.9542 28.065 12.8448C28.0276 12.7353 27.9585 12.6395 27.8664 12.5694C27.7744 12.4993 27.6637 12.4581 27.5482 12.4511C27.4328 12.444 27.3178 12.4714 27.218 12.5298C27.1181 12.5882 27.0379 12.6749 26.9874 12.779C26.937 12.8831 26.9186 12.9998 26.9346 13.1144Z" fill="#6A5ACD" fill-opacity="0.5"/>
<path d="M27.2851 11.4722C27.3613 11.4617 27.4347 11.4362 27.5011 11.3972C27.5675 11.3582 27.6254 11.3065 27.6717 11.245C27.718 11.1835 27.7517 11.1135 27.7708 11.0389C27.79 10.9644 27.7942 10.8868 27.7832 10.8106C27.7785 10.73 27.7572 10.6512 27.7205 10.5793C27.6838 10.5074 27.6327 10.4438 27.5702 10.3927C27.5077 10.3415 27.4353 10.3039 27.3575 10.2822C27.2798 10.2604 27.1984 10.2551 27.1184 10.2664C27.0385 10.2778 26.9618 10.3056 26.8931 10.3481C26.8245 10.3906 26.7654 10.4469 26.7196 10.5134C26.6738 10.5799 26.6423 10.6552 26.6271 10.7344C26.6119 10.8137 26.6134 10.8953 26.6313 10.9741C26.6526 11.1265 26.7332 11.2644 26.8556 11.3577C26.9781 11.451 27.1324 11.4921 27.2851 11.4722Z" fill="#6A5ACD" fill-opacity="0.5"/>
<path d="M43.4813 15.7528C43.634 15.7751 43.7893 15.7361 43.9133 15.6442C44.0373 15.5523 44.1198 15.4151 44.1429 15.2625C44.1536 15.1864 44.1492 15.1088 44.13 15.0344C44.1108 14.9599 44.0771 14.89 44.0308 14.8286C43.9846 14.7671 43.9267 14.7154 43.8604 14.6764C43.7942 14.6373 43.7209 14.6117 43.6448 14.6009C43.5686 14.5902 43.4911 14.5946 43.4167 14.6138C43.3422 14.633 43.2723 14.6667 43.2108 14.713C43.1494 14.7592 43.0977 14.8171 43.0586 14.8834C43.0196 14.9496 42.9939 15.0229 42.9832 15.0991C42.9723 15.1748 42.9765 15.2519 42.9957 15.326C43.015 15.4001 43.0487 15.4696 43.0951 15.5304C43.1415 15.5913 43.1995 15.6423 43.2658 15.6805C43.3321 15.7187 43.4054 15.7433 43.4813 15.7528Z" fill="#6A5ACD" fill-opacity="0.5"/>
<path d="M43.8083 13.6125C43.884 13.6234 43.9612 13.6192 44.0352 13.6C44.1093 13.5807 44.1788 13.547 44.2397 13.5006C44.3005 13.4542 44.3515 13.3962 44.3897 13.3299C44.4279 13.2636 44.4525 13.1903 44.4621 13.1144C44.4844 12.9617 44.4453 12.8064 44.3534 12.6824C44.2615 12.5584 44.1243 12.4759 43.9717 12.4528C43.8956 12.4421 43.8181 12.4465 43.7436 12.4657C43.6692 12.4849 43.5992 12.5186 43.5378 12.5649C43.4764 12.6111 43.4246 12.669 43.3856 12.7353C43.3465 12.8015 43.3209 12.8748 43.3102 12.9509C43.2994 13.0271 43.3038 13.1046 43.323 13.1791C43.3423 13.2535 43.376 13.3235 43.4222 13.3849C43.4685 13.4463 43.5264 13.498 43.5926 13.5371C43.6589 13.5761 43.7321 13.6018 43.8083 13.6125Z" fill="#6A5ACD" fill-opacity="0.5"/>
<path d="M44.1118 11.4722C44.2644 11.4921 44.4187 11.451 44.5412 11.3577C44.6636 11.2644 44.7442 11.1265 44.7655 10.9741C44.7835 10.8953 44.7849 10.8137 44.7697 10.7344C44.7545 10.6552 44.723 10.5799 44.6772 10.5134C44.6314 10.4469 44.5723 10.3906 44.5037 10.3481C44.435 10.3056 44.3583 10.2778 44.2784 10.2664C44.1985 10.2551 44.117 10.2604 44.0393 10.2822C43.9615 10.3039 43.8891 10.3415 43.8266 10.3927C43.7642 10.4438 43.713 10.5074 43.6763 10.5793C43.6396 10.6512 43.6183 10.73 43.6136 10.8106C43.6027 10.8868 43.6068 10.9644 43.626 11.0389C43.6451 11.1135 43.6788 11.1835 43.7251 11.245C43.7714 11.3065 43.8294 11.3582 43.8957 11.3972C43.9621 11.4362 44.0355 11.4617 44.1118 11.4722Z" fill="#6A5ACD" fill-opacity="0.5"/>
<path d="M35.698 69.7358H55.6225C55.6225 60.5037 49.7021 53.0025 41.6184 50.4637C44.8633 48.3865 47.0834 44.7513 47.0834 40.5968C47.0834 34.2497 41.96 29.0566 35.698 29.0566" fill="#5E49DA"/>
<path d="M35.6981 29.0566C29.1752 29.0566 23.8382 34.2497 23.8382 40.5968C23.8382 44.7513 26.1509 48.4442 29.531 50.4637C21.1105 53.0025 14.9434 60.5037 14.9434 69.7358H35.6981" fill="#5E49DA"/>
</svg>
