<svg width="25" height="24" viewBox="0 0 25 24" fill="none" xmlns="http://www.w3.org/2000/svg">
<path fill-rule="evenodd" clip-rule="evenodd" d="M12.3023 0C5.50835 0 0 5.50835 0 12.3043C0 17.74 3.52495 22.3513 8.41432 23.9789C9.02972 24.0915 9.25396 23.7117 9.25396 23.385C9.25396 23.0937 9.24372 22.3196 9.23758 21.2931C5.81502 22.0365 5.09314 19.6435 5.09314 19.6435C4.53355 18.2228 3.72667 17.8444 3.72667 17.8444C2.60954 17.0805 3.81115 17.0959 3.81115 17.0959C5.04603 17.1834 5.69573 18.3641 5.69573 18.3641C6.79341 20.244 8.5756 19.7008 9.27649 19.3865C9.38861 18.5914 9.70553 18.0492 10.0578 17.7415C7.32586 17.4312 4.45317 16.375 4.45317 11.6608C4.45317 10.3179 4.93289 9.21915 5.7198 8.35903C5.59334 8.04775 5.17096 6.79699 5.84011 5.10286C5.84011 5.10286 6.87328 4.77213 9.22376 6.36437C10.2052 6.09149 11.2578 5.95479 12.3038 5.95018C13.3487 5.95479 14.4014 6.09149 15.3844 6.36437C17.7333 4.77213 18.7644 5.10286 18.7644 5.10286C19.4356 6.79699 19.0132 8.04775 18.8868 8.35903C19.6752 9.21915 20.1519 10.3179 20.1519 11.6608C20.1519 16.3873 17.2746 17.4271 14.5335 17.7318C14.9758 18.1117 15.369 18.8622 15.369 20.0106C15.369 21.655 15.3542 22.9821 15.3542 23.385C15.3542 23.7147 15.5753 24.0977 16.1999 23.9774C21.0852 22.3467 24.6071 17.7384 24.6071 12.3043C24.6071 5.50835 19.0982 0 12.3023 0Z" fill="#6A5ACD"/>
</svg>
