<svg width="72" height="70" viewBox="0 0 72 70" fill="none" xmlns="http://www.w3.org/2000/svg">
<path fill-rule="evenodd" clip-rule="evenodd" d="M35.6462 0C15.9606 0 0 15.9747 0 35.6836C0 51.4475 10.2136 64.8208 24.3807 69.5409C26.1639 69.8676 26.8136 68.7659 26.8136 67.8186C26.8136 66.9738 26.7839 64.7288 26.7661 61.7518C16.8492 63.9077 14.7575 56.9679 14.7575 56.9679C13.1361 52.8476 10.7981 51.7504 10.7981 51.7504C7.56122 49.5351 11.0429 49.5796 11.0429 49.5796C14.621 49.8335 16.5035 53.2574 16.5035 53.2574C19.6841 58.7095 24.848 57.1342 26.8789 56.2225C27.2038 53.9166 28.122 52.3443 29.1427 51.4519C21.2269 50.5521 12.9032 47.4891 12.9032 33.8172C12.9032 29.9227 14.2932 26.7363 16.5733 24.2419C16.2068 23.3392 14.983 19.7119 16.9219 14.7988C16.9219 14.7988 19.9155 13.8396 26.7261 18.4572C29.5699 17.6659 32.6199 17.2694 35.6506 17.2561C38.6784 17.2694 41.7284 17.6659 44.5766 18.4572C51.3827 13.8396 54.3704 14.7988 54.3704 14.7988C56.3153 19.7119 55.0914 23.3392 54.725 24.2419C57.0095 26.7363 58.3906 29.9227 58.3906 33.8172C58.3906 47.5247 50.0536 50.5403 42.1111 51.4237C43.3928 52.5254 44.5321 54.7021 44.5321 58.0324C44.5321 62.8015 44.4891 66.6501 44.4891 67.8186C44.4891 68.7748 45.1299 69.8854 46.9398 69.5365C61.095 64.8075 71.2997 51.443 71.2997 35.6836C71.2997 15.9747 55.3377 0 35.6462 0Z" fill="#F0F5FC"/>
</svg>
