<svg width="35" height="35" viewBox="0 0 35 35" fill="none" xmlns="http://www.w3.org/2000/svg">
<path fill-rule="evenodd" clip-rule="evenodd" d="M17.4982 0C7.83482 0 0 8.03301 0 17.9438C0 25.8708 5.01373 32.5957 11.9681 34.9692C12.8435 35.1335 13.1624 34.5795 13.1624 34.1031C13.1624 33.6783 13.1478 32.5494 13.1391 31.0524C8.27102 32.1365 7.24424 28.6468 7.24424 28.6468C6.44831 26.5749 5.30065 26.0231 5.30065 26.0231C3.71169 24.9091 5.4208 24.9315 5.4208 24.9315C7.17725 25.0592 8.10135 26.7809 8.10135 26.7809C9.66263 29.5226 12.1975 28.7304 13.1945 28.2719C13.3539 27.1124 13.8047 26.3217 14.3057 25.873C10.42 25.4206 6.33398 23.8803 6.33398 17.0053C6.33398 15.0469 7.01631 13.4446 8.13557 12.1903C7.9557 11.7363 7.35493 9.91228 8.3067 7.44168C8.3067 7.44168 9.77623 6.95935 13.1194 9.28138C14.5154 8.88342 16.0126 8.68407 17.5004 8.67735C18.9866 8.68407 20.4838 8.88342 21.882 9.28138C25.223 6.95935 26.6897 7.44168 26.6897 7.44168C27.6443 9.91228 27.0436 11.7363 26.8637 12.1903C27.9851 13.4446 28.6631 15.0469 28.6631 17.0053C28.6631 23.8982 24.5706 25.4146 20.6717 25.8588C21.3009 26.4128 21.8602 27.5074 21.8602 29.1821C21.8602 31.5803 21.839 33.5155 21.839 34.1031C21.839 34.584 22.1536 35.1425 23.042 34.967C29.9906 32.589 35 25.8685 35 17.9438C35 8.03301 27.1645 0 17.4982 0Z" fill="white"/>
</svg>
