<svg width="25" height="25" viewBox="0 0 25 25" fill="none" xmlns="http://www.w3.org/2000/svg">
<path d="M2.70847 17.2394H22.166C22.4756 17.2394 22.7726 17.3624 22.9915 17.5813C23.2105 17.8003 23.3335 18.0972 23.3335 18.4068C23.3335 18.7165 23.2105 19.0134 22.9915 19.2323C22.7726 19.4513 22.4756 19.5743 22.166 19.5743H2.70847C2.39884 19.5743 2.10189 19.4513 1.88295 19.2323C1.66401 19.0134 1.54102 18.7165 1.54102 18.4068C1.54102 18.0972 1.66401 17.8003 1.88295 17.5813C2.10189 17.3624 2.39884 17.2394 2.70847 17.2394Z" fill="#E7EDF7"/>
<path d="M4.28076 8.56134L6.79468 5.36252L9.33972 8.56134H15.5661L18.0801 5.37808L20.6251 8.56134L17.1227 14.7177L8.19562 14.8422L4.28076 8.56134Z" fill="#E7EDF7"/>
<path d="M1.55664 5.7283L7.00475 11.3554L12.4529 5.7283L17.901 11.3554L23.3491 5.7283L22.1972 17.2394H2.73966L1.55664 5.7283Z" fill="#E7EDF7"/>
<path d="M12.4529 9.23065L14.8345 11.6123L12.4529 14.0094L10.0713 11.6278L12.4529 9.23065Z" fill="#E7EDF7"/>
<path d="M23.3493 5.7283L20.9521 8.2033L20.0493 17.2394H22.1974L23.3493 5.7283Z" fill="#F0F5FC"/>
<path d="M17.0527 17.2394C17.3624 17.2394 17.6593 17.3624 17.8782 17.5813C18.0972 17.8003 18.2202 18.0972 18.2202 18.4068C18.2202 18.7165 18.0972 19.0134 17.8782 19.2323C17.6593 19.4513 17.3624 19.5743 17.0527 19.5743H22.1973C22.5069 19.5743 22.8039 19.4513 23.0228 19.2323C23.2418 19.0134 23.3648 18.7165 23.3648 18.4068C23.3648 18.0972 23.2418 17.8003 23.0228 17.5813C22.8039 17.3624 22.5069 17.2394 22.1973 17.2394H17.0527Z" fill="#6A5ACD" fill-opacity="0.5"/>
<path d="M22.8355 16.7724L23.9329 5.79057C23.9467 5.6689 23.9219 5.54598 23.862 5.43919C23.802 5.3324 23.7101 5.24715 23.5991 5.19551C23.488 5.14387 23.3636 5.12845 23.2433 5.15144C23.123 5.17442 23.013 5.23465 22.9289 5.32359L20.6718 7.6585L18.5704 5.00449C18.516 4.93446 18.4464 4.87775 18.3668 4.83864C18.2873 4.79953 18.1998 4.77906 18.1112 4.77878C18.0227 4.78017 17.9357 4.80114 17.8563 4.84016C17.7769 4.87919 17.7071 4.9353 17.652 5.00449L15.3638 7.89977L12.8732 5.32359C12.7602 5.21514 12.6096 5.15458 12.4529 5.15458C12.2963 5.15458 12.1457 5.21514 12.0326 5.32359L9.54208 7.89977L7.25388 5.00449C7.19689 4.93858 7.12638 4.88572 7.04715 4.84948C6.96791 4.81325 6.8818 4.7945 6.79468 4.7945C6.70755 4.7945 6.62145 4.81325 6.54221 4.84948C6.46298 4.88572 6.39247 4.93858 6.33548 5.00449L4.23407 7.6585L1.97699 5.32359C1.89283 5.23465 1.78283 5.17442 1.66256 5.15144C1.54229 5.12845 1.41784 5.14387 1.30681 5.19551C1.19579 5.24715 1.10381 5.3324 1.0439 5.43919C0.983993 5.54598 0.959182 5.6689 0.972982 5.79057L2.07039 16.7724C1.69152 16.9188 1.376 17.1935 1.17878 17.5486C0.981557 17.9037 0.91512 18.3167 0.991037 18.7157C1.06695 19.1147 1.28041 19.4745 1.59425 19.7324C1.90809 19.9902 2.30242 20.1298 2.70859 20.1269H22.1661C22.5723 20.1298 22.9666 19.9902 23.2805 19.7324C23.5943 19.4745 23.8078 19.1147 23.8837 18.7157C23.9596 18.3167 23.8932 17.9037 23.696 17.5486C23.4987 17.1935 23.1832 16.9188 22.8043 16.7724H22.8355ZM18.1112 6.30425L19.8468 8.49906L17.901 10.5149L16.181 8.74033L18.1112 6.30425ZM6.79468 6.30425L8.72487 8.74033L7.00482 10.5149L5.05907 8.49906L6.79468 6.30425ZM6.58454 11.7524C6.69758 11.8608 6.84817 11.9214 7.00482 11.9214C7.16147 11.9214 7.31206 11.8608 7.4251 11.7524L12.4529 6.56887L17.4808 11.7601C17.5938 11.8686 17.7444 11.9292 17.901 11.9292C18.0577 11.9292 18.2083 11.8686 18.3213 11.7601L22.5709 7.33939L21.6369 16.679H3.23784L2.33501 7.33939L6.58454 11.7524ZM22.1973 18.9517H2.73973C2.58833 18.9496 2.44383 18.888 2.3375 18.7802C2.23116 18.6725 2.17155 18.5271 2.17157 18.3757C2.17361 18.2264 2.23437 18.0839 2.3407 17.979C2.44703 17.8741 2.59038 17.8153 2.73973 17.8153H22.1973C22.3466 17.8153 22.49 17.8741 22.5963 17.979C22.7026 18.0839 22.7634 18.2264 22.7654 18.3757C22.7665 18.4514 22.7526 18.5264 22.7246 18.5967C22.6966 18.667 22.655 18.7311 22.6023 18.7853C22.5495 18.8395 22.4866 18.8827 22.4171 18.9126C22.3476 18.9425 22.2729 18.9584 22.1973 18.9594V18.9517Z" fill="#5E49DA"/>
<path d="M12.0405 14.4064C12.1499 14.5157 12.2983 14.5771 12.453 14.5771C12.6077 14.5771 12.756 14.5157 12.8655 14.4064L15.2471 12.0248C15.3021 11.9711 15.3459 11.907 15.3758 11.8361C15.4057 11.7653 15.4211 11.6892 15.4211 11.6123C15.4211 11.5354 15.4057 11.4593 15.3758 11.3884C15.3459 11.3176 15.3021 11.2534 15.2471 11.1998L12.8655 8.81817C12.8118 8.7631 12.7477 8.71933 12.6768 8.68945C12.606 8.65956 12.5299 8.64417 12.453 8.64417C12.3761 8.64417 12.3 8.65956 12.2291 8.68945C12.1583 8.71933 12.0941 8.7631 12.0405 8.81817L9.65887 11.1998C9.6038 11.2534 9.56003 11.3176 9.53014 11.3884C9.50026 11.4593 9.48486 11.5354 9.48486 11.6123C9.48486 11.6892 9.50026 11.7653 9.53014 11.8361C9.56003 11.907 9.6038 11.9711 9.65887 12.0248L12.0405 14.4064ZM12.453 10.0557L14.0096 11.6123L12.453 13.1689L10.8964 11.6123L12.453 10.0557Z" fill="#5E49DA"/>
<path d="M3.98474 15.2625C4.00781 15.4151 4.09035 15.5523 4.21432 15.6442C4.33829 15.7361 4.4936 15.7751 4.64629 15.7528C4.72221 15.7433 4.79547 15.7187 4.86178 15.6805C4.92809 15.6423 4.98613 15.5913 5.0325 15.5304C5.07888 15.4696 5.11266 15.4001 5.13187 15.326C5.15108 15.2519 5.15535 15.1748 5.14441 15.0991C5.12273 14.9453 5.04086 14.8064 4.91679 14.713C4.79273 14.6196 4.63663 14.5793 4.48285 14.6009C4.32907 14.6226 4.1902 14.7045 4.09678 14.8286C4.00337 14.9526 3.96306 15.1087 3.98474 15.2625Z" fill="#6A5ACD" fill-opacity="0.5"/>
<path d="M3.6892 13.1144C3.69875 13.1903 3.72334 13.2636 3.76152 13.3299C3.79971 13.3962 3.85072 13.4542 3.91159 13.5006C3.97245 13.547 4.04195 13.5808 4.11602 13.6C4.19008 13.6192 4.26724 13.6235 4.34297 13.6125C4.45766 13.5975 4.56532 13.5488 4.65227 13.4725C4.73922 13.3962 4.80155 13.2959 4.83134 13.1841C4.86114 13.0723 4.85706 12.9542 4.81963 12.8448C4.78219 12.7353 4.71309 12.6395 4.62108 12.5694C4.52908 12.4993 4.41832 12.4581 4.30287 12.4511C4.18742 12.444 4.07248 12.4714 3.97263 12.5298C3.87279 12.5882 3.79254 12.675 3.74208 12.779C3.69161 12.8831 3.67321 12.9998 3.6892 13.1144Z" fill="#6A5ACD" fill-opacity="0.5"/>
<path d="M4.03946 11.4722C4.1157 11.4617 4.18912 11.4362 4.25548 11.3972C4.32184 11.3582 4.37984 11.3065 4.42614 11.245C4.47243 11.1835 4.50611 11.1135 4.52524 11.039C4.54436 10.9644 4.54855 10.8868 4.53757 10.8106C4.5329 10.73 4.51156 10.6513 4.4749 10.5793C4.43824 10.5074 4.38705 10.4438 4.32458 10.3927C4.2621 10.3416 4.1897 10.3039 4.11194 10.2822C4.03418 10.2605 3.95275 10.2551 3.87282 10.2664C3.79288 10.2778 3.71616 10.3056 3.64752 10.3481C3.57887 10.3906 3.51979 10.4469 3.47401 10.5134C3.42823 10.5799 3.39674 10.6552 3.38154 10.7345C3.36633 10.8138 3.36774 10.8953 3.38568 10.9741C3.40696 11.1265 3.4876 11.2644 3.61004 11.3577C3.73249 11.451 3.88682 11.4921 4.03946 11.4722Z" fill="#6A5ACD" fill-opacity="0.5"/>
<path d="M20.236 15.7528C20.3887 15.7751 20.544 15.7361 20.6679 15.6442C20.7919 15.5523 20.8745 15.4151 20.8975 15.2625C20.9083 15.1864 20.9039 15.1088 20.8847 15.0344C20.8654 14.9599 20.8317 14.89 20.7855 14.8286C20.7392 14.7671 20.6813 14.7154 20.6151 14.6764C20.5488 14.6373 20.4756 14.6117 20.3994 14.6009C20.3233 14.5902 20.2457 14.5946 20.1713 14.6138C20.0968 14.633 20.0269 14.6667 19.9655 14.713C19.904 14.7592 19.8523 14.8171 19.8133 14.8834C19.7742 14.9496 19.7486 15.0229 19.7378 15.0991C19.7269 15.1748 19.7312 15.2519 19.7504 15.326C19.7696 15.4001 19.8034 15.4696 19.8498 15.5304C19.8961 15.5913 19.9542 15.6423 20.0205 15.6805C20.0868 15.7187 20.16 15.7433 20.236 15.7528Z" fill="#6A5ACD" fill-opacity="0.5"/>
<path d="M20.5629 13.6125C20.6387 13.6235 20.7158 13.6192 20.7899 13.6C20.8639 13.5808 20.9334 13.547 20.9943 13.5006C21.0552 13.4542 21.1062 13.3962 21.1444 13.3299C21.1826 13.2636 21.2071 13.1903 21.2167 13.1144C21.239 12.9617 21.1999 12.8064 21.1081 12.6824C21.0162 12.5585 20.8789 12.4759 20.7264 12.4528C20.6502 12.4421 20.5727 12.4465 20.4983 12.4657C20.4238 12.4849 20.3539 12.5186 20.2924 12.5649C20.231 12.6111 20.1793 12.669 20.1402 12.7353C20.1012 12.8015 20.0755 12.8748 20.0648 12.951C20.0541 13.0271 20.0585 13.1046 20.0777 13.1791C20.0969 13.2535 20.1306 13.3235 20.1769 13.3849C20.2231 13.4463 20.281 13.498 20.3473 13.5371C20.4135 13.5762 20.4868 13.6018 20.5629 13.6125Z" fill="#6A5ACD" fill-opacity="0.5"/>
<path d="M20.8664 11.4722C21.019 11.4921 21.1734 11.451 21.2958 11.3577C21.4182 11.2644 21.4989 11.1265 21.5202 10.9741C21.5381 10.8953 21.5395 10.8138 21.5243 10.7345C21.5091 10.6552 21.4776 10.5799 21.4318 10.5134C21.3861 10.4469 21.327 10.3906 21.2583 10.3481C21.1897 10.3056 21.113 10.2778 21.033 10.2664C20.9531 10.2551 20.8717 10.2605 20.7939 10.2822C20.7162 10.3039 20.6437 10.3416 20.5813 10.3927C20.5188 10.4438 20.4676 10.5074 20.4309 10.5793C20.3943 10.6513 20.3729 10.73 20.3683 10.8106C20.3573 10.8868 20.3615 10.9644 20.3806 11.039C20.3997 11.1135 20.4334 11.1835 20.4797 11.245C20.526 11.3065 20.584 11.3582 20.6504 11.3972C20.7167 11.4362 20.7901 11.4617 20.8664 11.4722Z" fill="#6A5ACD" fill-opacity="0.5"/>
</svg>
