<svg width="20" height="20" viewBox="0 0 20 20" fill="none" xmlns="http://www.w3.org/2000/svg">
<path d="M10 20C15.5228 20 20 15.5228 20 10C20 4.47715 15.5228 0 10 0C4.47715 0 0 4.47715 0 10C0 15.5228 4.47715 20 10 20Z" fill="#6A5ACD"/>
<path d="M15.9747 10.8044V14.9272H13.5844V11.0807C13.5844 10.1149 13.2393 9.4553 12.3739 9.4553C11.7134 9.4553 11.3211 9.89934 11.1478 10.3293C11.0849 10.483 11.0687 10.6963 11.0687 10.9119V14.927H8.67821C8.67821 14.927 8.71029 8.4123 8.67821 7.73795H11.0688V8.7567C11.064 8.76472 11.0573 8.77256 11.053 8.78023H11.0688V8.7567C11.3865 8.26791 11.953 7.56914 13.2231 7.56914C14.7957 7.56914 15.9747 8.59662 15.9747 10.8044ZM6.17758 4.27258C5.35991 4.27258 4.82495 4.80932 4.82495 5.51452C4.82495 6.20474 5.3444 6.75698 6.14621 6.75698H6.16172C6.99544 6.75698 7.51382 6.20474 7.51382 5.51452C7.49795 4.80932 6.99544 4.27258 6.17758 4.27258ZM4.96702 14.9272H7.35659V7.73795H4.96702V14.9272Z" fill="#F1F2F2"/>
</svg>
