<svg width="197" height="197" viewBox="0 0 197 197" fill="none" xmlns="http://www.w3.org/2000/svg">
<g filter="url(#filter0_d)">
<path d="M98.311 0.000215323C46.1471 0.0947151 3.90566 42.4936 4.00016 94.689C4.11041 146.869 46.5093 189.094 98.7047 189C150.884 188.89 193.11 146.506 193 94.3268C192.921 42.1314 150.522 -0.110034 98.311 0.000215323Z" fill="#6A5ACD"/>
</g>
<g filter="url(#filter1_d)">
<path d="M98.5124 23.725C137.476 23.725 169.225 55.4123 169.275 94.3634C169.349 133.377 137.674 165.188 98.649 165.275H98.5248C59.5614 165.275 27.7996 133.588 27.7251 94.6366C27.6879 75.726 35.0261 57.9453 48.3616 44.5478C61.7095 31.1502 79.4653 23.7622 98.3634 23.725H98.5124ZM98.5124 20C98.4627 20 98.4131 20 98.351 20C57.2271 20.0745 23.9256 53.5002 24.0001 94.649C24.087 135.736 57.4381 169 98.5248 169C98.5745 169 98.6117 169 98.6614 169C139.798 168.913 173.087 135.5 173 94.3634C172.938 53.2643 139.587 20 98.5124 20Z" fill="white"/>
</g>
<path d="M99.8958 90.3333L98.4999 93L97.1041 90.3333L95.7083 79.6667H101.292L99.8958 90.3333Z" fill="#6A5ACD"/>
<path d="M105.479 103.667C105.479 105.14 104.228 106.333 102.687 106.333H94.3124C92.7714 106.333 91.5208 105.14 91.5208 103.667V94.3333C91.5208 92.86 97.1041 90.3333 97.1041 90.3333H99.8958C99.8958 90.3333 105.479 92.86 105.479 94.3333V103.667Z" fill="#6A5ACD"/>
<path d="M99.8958 90.3333V91.6667H97.1041V90.3333L95.7083 79.6667H101.292L99.8958 90.3333Z" fill="white"/>
<path d="M92.5119 78.2947C91.8056 78.1227 75.1785 73.98 72.4259 61.2707C71.2017 55.6107 72.7176 52.344 74.207 50.5987C76.0481 48.4373 78.5578 47.6667 80.2914 47.6667C82.6099 47.6667 84.4021 48.276 85.6207 49.4787C87.1533 50.9947 87.131 52.8387 87.1254 53.0467C87.1254 55.1427 85.6388 58.3333 81.5421 58.3333C81.3704 58.3333 80.4868 58.3093 79.5684 57.8467C78.2325 57.1773 77.4997 55.9267 77.4997 54.3333H80.2914C80.2914 55.0987 80.6027 55.352 80.8707 55.4893C81.1889 55.648 81.5407 55.6667 81.5435 55.6667C84.1997 55.6667 84.3351 53.444 84.3351 53C84.3351 52.9347 84.3323 52.024 83.5884 51.308C82.9142 50.6613 81.8045 50.3333 80.2914 50.3333C79.4511 50.3333 77.6826 50.7453 76.3705 52.2813C74.7848 54.1427 74.3661 57.0627 75.1603 60.7293C77.5611 71.82 93.0381 75.6693 93.1945 75.7053L92.5119 78.2947Z" fill="white"/>
<path d="M104.209 78.3333L103.373 75.7893C103.513 75.7507 117.43 71.44 121.389 60.62C122.602 57.3133 122.518 54.6987 121.138 52.844C119.805 51.0467 117.545 50.396 116.353 50.396C112.213 50.396 112.165 52.9533 112.165 53.0627C112.177 53.6773 112.408 55.7293 114.957 55.7293C115.585 55.7133 116.353 55.4693 116.353 54.396H119.145C119.145 57.328 116.64 58.396 114.957 58.396C110.859 58.396 109.374 55.2027 109.374 53.0627C109.374 51.2187 110.832 47.7293 116.353 47.7293C118.476 47.7293 121.593 48.844 123.417 51.2973C124.745 53.084 125.928 56.308 124.029 61.5C119.598 73.5987 104.836 78.1453 104.209 78.3333Z" fill="white"/>
<path d="M105.479 97H91.521V94.3333C91.521 92.8613 97.1043 90.3333 97.1043 90.3333H99.896C99.896 90.3333 105.479 92.8613 105.479 94.3333V97Z" fill="#E7EDF7"/>
<path d="M112.458 49C112.458 59.6667 109.549 82.3333 98.5001 82.3333C87.4507 82.3333 84.5417 59.6667 84.5417 49H112.458Z" fill="#E7EDF7"/>
<path d="M99.8958 70.3333H97.1042V60.4787L94.3125 61.3667V59.02L99.6348 57H99.8958V70.3333Z" fill="#6A5ACD"/>
<path d="M108.271 95.6667H88.7292V106.333H108.271V95.6667Z" fill="#E5E5E5"/>
<path d="M105.479 99.6667H91.5208V102.333H105.479V99.6667Z" fill="#6A5ACD"/>
<path d="M59.48 136V121.8H65.76C66.4133 121.8 67.0133 121.933 67.56 122.2C68.12 122.467 68.6 122.827 69 123.28C69.4133 123.733 69.7267 124.24 69.94 124.8C70.1667 125.36 70.28 125.933 70.28 126.52C70.28 127.427 70.0467 128.26 69.58 129.02C69.1267 129.78 68.5067 130.327 67.72 130.66L70.96 136H67.92L65 131.24H62.24V136H59.48ZM62.24 128.82H65.7C66.22 128.82 66.6467 128.6 66.98 128.16C67.3267 127.707 67.5 127.16 67.5 126.52C67.5 126.08 67.4067 125.687 67.22 125.34C67.0333 124.993 66.7933 124.72 66.5 124.52C66.22 124.32 65.9133 124.22 65.58 124.22H62.24V128.82ZM71.625 132.9C71.625 132.22 71.8117 131.627 72.185 131.12C72.5717 130.6 73.105 130.2 73.785 129.92C74.465 129.64 75.245 129.5 76.125 129.5C76.565 129.5 77.0117 129.54 77.465 129.62C77.9183 129.687 78.3117 129.787 78.645 129.92V129.36C78.645 128.693 78.445 128.18 78.045 127.82C77.6583 127.46 77.0783 127.28 76.305 127.28C75.7317 127.28 75.185 127.38 74.665 127.58C74.145 127.78 73.5983 128.073 73.025 128.46L72.165 126.7C72.8583 126.247 73.565 125.907 74.285 125.68C75.0183 125.453 75.785 125.34 76.585 125.34C78.0783 125.34 79.2383 125.713 80.065 126.46C80.905 127.207 81.325 128.273 81.325 129.66V133C81.325 133.293 81.3717 133.5 81.465 133.62C81.5583 133.727 81.725 133.793 81.965 133.82V136C81.725 136.053 81.505 136.087 81.305 136.1C81.1183 136.127 80.9583 136.14 80.825 136.14C80.2917 136.14 79.885 136.02 79.605 135.78C79.325 135.54 79.1583 135.247 79.105 134.9L79.045 134.36C78.5783 134.96 78.005 135.42 77.325 135.74C76.6583 136.047 75.9717 136.2 75.265 136.2C74.5583 136.2 73.9317 136.06 73.385 135.78C72.8383 135.487 72.405 135.093 72.085 134.6C71.7783 134.093 71.625 133.527 71.625 132.9ZM78.145 133.44C78.4783 133.12 78.645 132.813 78.645 132.52V131.46C77.9517 131.18 77.2517 131.04 76.545 131.04C75.8383 131.04 75.265 131.193 74.825 131.5C74.385 131.793 74.165 132.187 74.165 132.68C74.165 133.08 74.325 133.44 74.645 133.76C74.965 134.08 75.425 134.24 76.025 134.24C76.425 134.24 76.8117 134.167 77.185 134.02C77.5717 133.873 77.8917 133.68 78.145 133.44ZM93.5694 136H90.8894V130.12C90.8894 129.28 90.7427 128.667 90.4494 128.28C90.156 127.893 89.7494 127.7 89.2294 127.7C88.8694 127.7 88.5027 127.793 88.1294 127.98C87.7694 128.167 87.4427 128.427 87.1494 128.76C86.856 129.08 86.6427 129.453 86.5094 129.88V136H83.8294V125.52H86.2494V127.46C86.636 126.807 87.196 126.293 87.9294 125.92C88.6627 125.533 89.4894 125.34 90.4094 125.34C91.0627 125.34 91.596 125.46 92.0094 125.7C92.4227 125.927 92.7427 126.24 92.9694 126.64C93.196 127.027 93.3494 127.467 93.4294 127.96C93.5227 128.453 93.5694 128.953 93.5694 129.46V136ZM103.06 136L99.9997 131.48L98.5797 132.88V136H95.8997V121.4H98.5797V130.24L102.8 125.54H105.64L101.74 129.98L105.92 136H103.06ZM107.052 124.06V121.4H109.732V124.06H107.052ZM107.052 136V125.52H109.732V136H107.052ZM121.89 136H119.21V130.12C119.21 129.28 119.063 128.667 118.77 128.28C118.476 127.893 118.07 127.7 117.55 127.7C117.19 127.7 116.823 127.793 116.45 127.98C116.09 128.167 115.763 128.427 115.47 128.76C115.176 129.08 114.963 129.453 114.83 129.88V136H112.15V125.52H114.57V127.46C114.956 126.807 115.516 126.293 116.25 125.92C116.983 125.533 117.81 125.34 118.73 125.34C119.383 125.34 119.916 125.46 120.33 125.7C120.743 125.927 121.063 126.24 121.29 126.64C121.516 127.027 121.67 127.467 121.75 127.96C121.843 128.453 121.89 128.953 121.89 129.46V136ZM128.32 136.06C127.387 136.06 126.567 135.82 125.86 135.34C125.153 134.86 124.6 134.22 124.2 133.42C123.8 132.607 123.6 131.72 123.6 130.76C123.6 129.747 123.807 128.833 124.22 128.02C124.633 127.193 125.207 126.54 125.94 126.06C126.673 125.58 127.52 125.34 128.48 125.34C129.293 125.34 130.007 125.527 130.62 125.9C131.233 126.26 131.74 126.747 132.14 127.36V125.52H134.48V135.5C134.48 136.54 134.227 137.427 133.72 138.16C133.227 138.907 132.54 139.473 131.66 139.86C130.78 140.26 129.78 140.46 128.66 140.46C127.513 140.46 126.547 140.267 125.76 139.88C124.987 139.507 124.32 138.973 123.76 138.28L125.22 136.86C125.62 137.353 126.12 137.74 126.72 138.02C127.333 138.3 127.98 138.44 128.66 138.44C129.22 138.44 129.733 138.333 130.2 138.12C130.68 137.92 131.067 137.6 131.36 137.16C131.653 136.733 131.8 136.18 131.8 135.5V134.18C131.453 134.78 130.96 135.247 130.32 135.58C129.693 135.9 129.027 136.06 128.32 136.06ZM129.22 133.92C129.807 133.92 130.333 133.747 130.8 133.4C131.28 133.053 131.613 132.64 131.8 132.16V129.66C131.56 129.047 131.18 128.553 130.66 128.18C130.153 127.807 129.62 127.62 129.06 127.62C128.513 127.62 128.033 127.773 127.62 128.08C127.22 128.387 126.907 128.787 126.68 129.28C126.453 129.76 126.34 130.28 126.34 130.84C126.34 131.413 126.467 131.933 126.72 132.4C126.973 132.867 127.313 133.24 127.74 133.52C128.18 133.787 128.673 133.92 129.22 133.92Z" fill="white"/>
<defs>
<filter id="filter0_d" x="0" y="0" width="197" height="197" filterUnits="userSpaceOnUse" color-interpolation-filters="sRGB">
<feFlood flood-opacity="0" result="BackgroundImageFix"/>
<feColorMatrix in="SourceAlpha" type="matrix" values="0 0 0 0 0 0 0 0 0 0 0 0 0 0 0 0 0 0 127 0" result="hardAlpha"/>
<feOffset dy="4"/>
<feGaussianBlur stdDeviation="2"/>
<feComposite in2="hardAlpha" operator="out"/>
<feColorMatrix type="matrix" values="0 0 0 0 0 0 0 0 0 0 0 0 0 0 0 0 0 0 0.25 0"/>
<feBlend mode="normal" in2="BackgroundImageFix" result="effect1_dropShadow"/>
<feBlend mode="normal" in="SourceGraphic" in2="effect1_dropShadow" result="shape"/>
</filter>
<filter id="filter1_d" x="20" y="20" width="157" height="157" filterUnits="userSpaceOnUse" color-interpolation-filters="sRGB">
<feFlood flood-opacity="0" result="BackgroundImageFix"/>
<feColorMatrix in="SourceAlpha" type="matrix" values="0 0 0 0 0 0 0 0 0 0 0 0 0 0 0 0 0 0 127 0" result="hardAlpha"/>
<feOffset dy="4"/>
<feGaussianBlur stdDeviation="2"/>
<feColorMatrix type="matrix" values="0 0 0 0 0 0 0 0 0 0 0 0 0 0 0 0 0 0 0.25 0"/>
<feBlend mode="normal" in2="BackgroundImageFix" result="effect1_dropShadow"/>
<feBlend mode="normal" in="SourceGraphic" in2="effect1_dropShadow" result="shape"/>
</filter>
</defs>
</svg>
