<svg width="34" height="24" viewBox="0 0 34 24" fill="none" xmlns="http://www.w3.org/2000/svg">
<path d="M16.9866 24C9.18775 24 2.96465 19.2166 0 12C2.99136 4.78341 9.21445 0 16.9866 0C24.7588 0 31.0086 4.78341 34 12C31.0086 19.2166 24.7588 24 16.9866 24ZM16.9866 21.1244C23.1563 21.1244 28.4713 17.3917 30.9552 12C28.4713 6.6083 23.1563 2.87558 16.9866 2.87558C10.8437 2.87558 5.52867 6.6083 3.04478 12C5.50196 17.3917 10.817 21.1244 16.9866 21.1244ZM10.5232 12C10.5232 8.29493 13.4077 5.30876 16.9599 5.30876C20.5389 5.30876 23.4234 8.32258 23.4234 12C23.4234 15.7051 20.5122 18.6912 16.9599 18.6912C13.4077 18.6912 10.5232 15.6774 10.5232 12ZM17.3606 10.3134C17.3606 11.4747 18.2419 12.4147 19.3904 12.4147C20.4855 12.4147 21.3936 11.4747 21.3936 10.3134C21.3936 9.17972 20.5122 8.23963 19.3904 8.23963C18.2687 8.23963 17.3606 9.15207 17.3606 10.3134Z" fill="#5E49DA"/>
</svg>
