<svg width="24" height="24" viewBox="0 0 24 24" fill="none" xmlns="http://www.w3.org/2000/svg">
<path d="M18.1896 16.1594C18.1896 16.1594 17.1497 17.3914 16.721 18.2448C16.2923 19.0982 15.9584 20.323 16.2563 21.1585C16.5543 21.994 17.4222 22.7536 18.2512 22.7282C19.0802 22.7029 20.3497 21.956 20.5181 20.4875C20.6865 19.019 19.2683 17.2436 18.8893 16.9034C18.5103 16.5631 18.1896 16.1594 18.1896 16.1594Z" fill="#5791FF"/>
<path d="M23.4492 11.965C23.4492 14.8943 22.2759 17.555 20.36 19.5168C20.2775 19.0689 20.1034 18.63 19.8283 18.2448L18.2791 16.032L16.7209 18.2448C15.9967 19.275 15.9142 20.6546 16.6292 21.6758C16.7025 21.7744 16.7759 21.8729 16.8583 21.9535C15.4467 22.5806 13.8792 22.93 12.2292 22.93C6.02331 22.93 1 18.0208 1 11.965C1 5.90915 6.02331 1 12.2292 1C18.4258 0.999991 23.4492 5.90914 23.4492 11.965Z" fill="#FFD872"/>
<path d="M23.4492 11.965C23.4492 14.8943 22.2759 17.555 20.36 19.5168C20.2775 19.0689 20.1034 18.63 19.8283 18.2448L18.2791 16.032L16.7209 18.2448C15.9967 19.275 15.9142 20.6546 16.6292 21.6758C16.7025 21.7744 16.7759 21.8729 16.8583 21.9535C15.4467 22.5806 13.8792 22.93 12.2292 22.93C6.02331 22.93 1 18.0208 1 11.965C1 5.90915 6.02331 1 12.2292 1C18.4258 0.999991 23.4492 5.90914 23.4492 11.965Z" stroke="#303030" stroke-width="0.7" stroke-miterlimit="10" stroke-linecap="round" stroke-linejoin="round"/>
<path d="M20.3601 19.5169C20.5067 20.2604 20.3692 21.0398 19.9201 21.6758C19.4984 22.276 18.9209 22.6523 18.2792 22.6523C17.7476 22.6523 17.2526 22.3925 16.8584 21.9535" stroke="#303030" stroke-width="0.7" stroke-miterlimit="10" stroke-linecap="round" stroke-linejoin="round"/>
<path d="M7.23516 12.289C7.86743 12.289 8.37998 11.6868 8.37998 10.9439C8.37998 10.2011 7.86743 9.59888 7.23516 9.59888C6.60289 9.59888 6.09033 10.2011 6.09033 10.9439C6.09033 11.6868 6.60289 12.289 7.23516 12.289Z" fill="#303030"/>
<path d="M7.23516 12.289C7.86743 12.289 8.37998 11.6868 8.37998 10.9439C8.37998 10.2011 7.86743 9.59888 7.23516 9.59888C6.60289 9.59888 6.09033 10.2011 6.09033 10.9439C6.09033 11.6868 6.60289 12.289 7.23516 12.289Z" fill="#303030"/>
<path d="M7.59338 7.3424C7.59338 7.3424 5.71206 6.72955 5.08496 8.91831" stroke="#303030" stroke-width="0.7" stroke-miterlimit="10" stroke-linecap="round" stroke-linejoin="round"/>
<path d="M17.2151 12.289C17.8474 12.289 18.36 11.6868 18.36 10.9439C18.36 10.2011 17.8474 9.59888 17.2151 9.59888C16.5829 9.59888 16.0703 10.2011 16.0703 10.9439C16.0703 11.6868 16.5829 12.289 17.2151 12.289Z" fill="#303030"/>
<path d="M17.2151 12.289C17.8474 12.289 18.36 11.6868 18.36 10.9439C18.36 10.2011 17.8474 9.59888 17.2151 9.59888C16.5829 9.59888 16.0703 10.2011 16.0703 10.9439C16.0703 11.6868 16.5829 12.289 17.2151 12.289Z" fill="#303030"/>
<path d="M16.8564 7.3424C16.8564 7.3424 18.7378 6.72955 19.3649 8.91831" stroke="#303030" stroke-width="0.7" stroke-miterlimit="10" stroke-linecap="round" stroke-linejoin="round"/>
<path d="M9.06396 16.783C11.3403 14.9735 13.4677 15.0051 15.4496 16.783" stroke="#303030" stroke-width="0.7" stroke-miterlimit="10" stroke-linecap="round" stroke-linejoin="round"/>
</svg>
