<svg width="75" height="82" viewBox="0 0 75 82" fill="none" xmlns="http://www.w3.org/2000/svg">
<path d="M68.75 23.9167H51.0406V13.6667C51.0406 12.7605 50.7114 11.8915 50.1253 11.2507C49.5393 10.61 48.7444 10.25 47.9156 10.25H27.0844C26.2556 10.25 25.4607 10.61 24.8747 11.2507C24.2886 11.8915 23.9594 12.7605 23.9594 13.6667V37.5833H6.25C5.4212 37.5833 4.62634 37.9433 4.04029 38.5841C3.45424 39.2248 3.125 40.0938 3.125 41V68.3333C3.125 69.2395 3.45424 70.1085 4.04029 70.7493C4.62634 71.39 5.4212 71.75 6.25 71.75H68.75C69.5788 71.75 70.3737 71.39 70.9597 70.7493C71.5458 70.1085 71.875 69.2395 71.875 68.3333V27.3333C71.875 26.4272 71.5458 25.5581 70.9597 24.9174C70.3737 24.2766 69.5788 23.9167 68.75 23.9167ZM23.9594 64.9167H9.375V44.4167H23.9594V64.9167ZM44.7906 27.3333V64.9167H30.2094V17.0833H44.7906V27.3333ZM65.625 64.9167H51.0406V30.75H65.625V64.9167Z" fill="#6A5ACD"/>
</svg>
