<svg viewBox="0 0 51 33" fill="none" xmlns="http://www.w3.org/2000/svg">
<path d="M3.76819 26.6312H45.2417C45.9016 26.6312 46.5346 26.8927 47.0012 27.3582C47.4679 27.8237 47.7301 28.4551 47.7301 29.1135C47.7301 29.7718 47.4679 30.4032 47.0012 30.8687C46.5346 31.3343 45.9016 31.5958 45.2417 31.5958H3.76819C3.10823 31.5958 2.47529 31.3343 2.00862 30.8687C1.54196 30.4032 1.27979 29.7718 1.27979 29.1135C1.27979 28.4551 1.54196 27.8237 2.00862 27.3582C2.47529 26.8927 3.10823 26.6312 3.76819 26.6312Z" fill="#5E49DA"/>
<path d="M7.1189 8.17933L12.4773 1.3778L17.902 8.17933H31.1735L36.5319 1.4109L41.9566 8.17933L34.4914 21.2694L15.4634 21.5342L7.1189 8.17933Z" fill="#5E49DA"/>
<path d="M1.31274 2.15559L12.9253 14.1203L24.5379 2.15559L36.1505 14.1203L47.763 2.15559L45.3078 26.6312H3.83433L1.31274 2.15559Z" fill="#5E49DA"/>
<path d="M24.538 9.60252L29.6144 14.6664L24.538 19.7634L19.4617 14.6995L24.538 9.60252Z" fill="#5E49DA"/>
<path d="M47.7629 2.15559L42.6534 7.41809L40.729 26.6312H45.3077L47.7629 2.15559Z" fill="#5E49DA"/>
<path d="M34.3423 26.6312C35.0023 26.6312 35.6352 26.8927 36.1019 27.3582C36.5685 27.8237 36.8307 28.4551 36.8307 29.1135C36.8307 29.7718 36.5685 30.4032 36.1019 30.8687C35.6352 31.3343 35.0023 31.5958 34.3423 31.5958H45.3079C45.9678 31.5958 46.6008 31.3343 47.0674 30.8687C47.5341 30.4032 47.7963 29.7718 47.7963 29.1135C47.7963 28.4551 47.5341 27.8237 47.0674 27.3582C46.6008 26.8927 45.9678 26.6312 45.3079 26.6312H34.3423Z" fill="#5E49DA"/>
<path d="M46.6683 25.6382L49.0074 2.28798C49.0368 2.02929 48.9839 1.76791 48.8562 1.54085C48.7285 1.31379 48.5325 1.13253 48.2958 1.02273C48.0592 0.91293 47.7939 0.880147 47.5376 0.92902C47.2812 0.977893 47.0467 1.10595 46.8674 1.29506L42.0564 6.25968L37.5773 0.616563C37.4614 0.467676 37.313 0.34708 37.1434 0.263926C36.9739 0.180773 36.7875 0.137246 36.5985 0.13665C36.41 0.13962 36.2245 0.184193 36.0552 0.267168C35.886 0.350143 35.7373 0.469463 35.6198 0.616563L30.7425 6.77269L25.4339 1.29506C25.1929 1.06446 24.872 0.935705 24.5381 0.935705C24.2041 0.935705 23.8832 1.06446 23.6422 1.29506L18.3336 6.77269L13.4563 0.616563C13.3349 0.476435 13.1846 0.364033 13.0157 0.28699C12.8468 0.209948 12.6633 0.170072 12.4776 0.170072C12.2919 0.170072 12.1083 0.209948 11.9394 0.28699C11.7706 0.364033 11.6203 0.476435 11.4988 0.616563L7.01966 6.25968L2.20874 1.29506C2.02935 1.10595 1.7949 0.977893 1.53854 0.92902C1.28218 0.880147 1.01691 0.91293 0.780263 1.02273C0.543613 1.13253 0.347569 1.31379 0.219872 1.54085C0.092175 1.76791 0.0392913 2.02929 0.0687046 2.28798L2.40781 25.6382C1.60025 25.9496 0.927737 26.5336 0.50736 27.2886C0.0869833 28.0436 -0.0546259 28.9218 0.107189 29.7702C0.269003 30.6186 0.723992 31.3836 1.39293 31.9318C2.06187 32.4801 2.90239 32.777 3.76814 32.7707H45.2416C46.1074 32.777 46.9479 32.4801 47.6168 31.9318C48.2858 31.3836 48.7407 30.6186 48.9026 29.7702C49.0644 28.9218 48.9228 28.0436 48.5024 27.2886C48.082 26.5336 47.4095 25.9496 46.6019 25.6382H46.6683ZM36.5985 3.3802L40.298 8.04694L36.1506 12.3331L32.4844 8.55995L36.5985 3.3802ZM12.4776 3.3802L16.5917 8.55995L12.9255 12.3331L8.77813 8.04694L12.4776 3.3802ZM12.0297 14.9643C12.2706 15.1949 12.5916 15.3237 12.9255 15.3237C13.2594 15.3237 13.5804 15.1949 13.8213 14.9643L24.5381 3.94286L35.2548 14.9809C35.4957 15.2115 35.8167 15.3402 36.1506 15.3402C36.4845 15.3402 36.8055 15.2115 37.0465 14.9809L46.1043 5.58118L44.1135 25.4397H4.89622L2.97185 5.58118L12.0297 14.9643ZM45.308 30.2719H3.8345C3.5118 30.2675 3.20379 30.1366 2.97715 29.9074C2.7505 29.6782 2.62344 29.3692 2.62347 29.0473C2.62783 28.7298 2.75734 28.4267 2.98398 28.2037C3.21062 27.9807 3.51617 27.8557 3.8345 27.8558H45.308C45.6263 27.8557 45.9318 27.9807 46.1585 28.2037C46.3851 28.4267 46.5146 28.7298 46.519 29.0473C46.5212 29.2081 46.4916 29.3678 46.4319 29.5172C46.3722 29.6666 46.2836 29.8028 46.1712 29.9181C46.0587 30.0333 45.9246 30.1254 45.7765 30.1889C45.6284 30.2525 45.4692 30.2863 45.308 30.2884V30.2719Z" fill="#CD7F32"/>
<path d="M6.48878 22.4278C6.53795 22.7522 6.7139 23.044 6.97814 23.2394C7.24238 23.4347 7.57343 23.5178 7.89888 23.4703C8.0607 23.45 8.21685 23.3978 8.35819 23.3166C8.49953 23.2354 8.62323 23.1269 8.72208 22.9975C8.82093 22.8681 8.89293 22.7203 8.93388 22.5628C8.97484 22.4053 8.98392 22.2413 8.9606 22.0803C8.9144 21.7533 8.73989 21.458 8.47544 21.2594C8.211 21.0607 7.87829 20.9751 7.5505 21.0211C7.22272 21.0672 6.92671 21.2413 6.7276 21.5051C6.52849 21.7689 6.44258 22.1008 6.48878 22.4278Z" fill="#CD7F32"/>
<path d="M5.85814 17.8603C5.8785 18.0218 5.93091 18.1775 6.0123 18.3185C6.09369 18.4595 6.20242 18.5829 6.33216 18.6815C6.46189 18.7801 6.61002 18.852 6.7679 18.8928C6.92577 18.9337 7.09022 18.9427 7.25165 18.9195C7.49611 18.8876 7.72557 18.784 7.9109 18.6218C8.09624 18.4596 8.22909 18.2462 8.29261 18.0085C8.35612 17.7709 8.34743 17.5198 8.26764 17.2871C8.18784 17.0544 8.04055 16.8506 7.84444 16.7015C7.64833 16.5525 7.41226 16.4649 7.16617 16.4499C6.92009 16.4349 6.67509 16.4932 6.46227 16.6174C6.24945 16.7416 6.07841 16.926 5.97085 17.1473C5.86329 17.3686 5.82406 17.6168 5.85814 17.8603Z" fill="#CD7F32"/>
<path d="M6.60527 14.3686C6.76779 14.3462 6.92427 14.2921 7.06572 14.2092C7.20718 14.1263 7.3308 14.0163 7.42947 13.8856C7.52815 13.7548 7.59994 13.6059 7.6407 13.4474C7.68146 13.2889 7.6904 13.1239 7.66699 12.9619C7.65704 12.7905 7.61155 12.6231 7.53341 12.4701C7.45527 12.3172 7.34617 12.182 7.213 12.0733C7.07984 11.9646 6.9255 11.8845 6.75976 11.8383C6.59402 11.7921 6.42046 11.7807 6.25008 11.8048C6.07969 11.829 5.91617 11.8881 5.76985 11.9785C5.62354 12.0688 5.49761 12.1885 5.40002 12.3299C5.30244 12.4713 5.23532 12.6314 5.20292 12.8C5.17052 12.9686 5.17353 13.1421 5.21176 13.3094C5.25712 13.6336 5.42899 13.9268 5.68998 14.1251C5.95096 14.3235 6.27993 14.411 6.60527 14.3686Z" fill="#CD7F32"/>
<path d="M41.1273 23.4704C41.4528 23.5178 41.7838 23.4347 42.0481 23.2394C42.3123 23.044 42.4882 22.7522 42.5374 22.4278C42.5603 22.2659 42.551 22.1011 42.51 21.9428C42.469 21.7844 42.3972 21.6357 42.2986 21.5051C42.2 21.3745 42.0766 21.2645 41.9354 21.1815C41.7942 21.0984 41.638 21.044 41.4757 21.0211C41.3134 20.9983 41.1482 21.0076 40.9895 21.0485C40.8308 21.0894 40.6817 21.161 40.5507 21.2594C40.4198 21.3577 40.3096 21.4808 40.2263 21.6217C40.1431 21.7625 40.0885 21.9184 40.0656 22.0803C40.0423 22.2413 40.0514 22.4053 40.0923 22.5628C40.1333 22.7203 40.2053 22.8681 40.3041 22.9975C40.403 23.1269 40.5267 23.2354 40.668 23.3166C40.8093 23.3978 40.9655 23.45 41.1273 23.4704Z" fill="#CD7F32"/>
<path d="M41.8244 18.9194C41.9858 18.9427 42.1503 18.9336 42.3082 18.8928C42.466 18.8519 42.6142 18.7801 42.7439 18.6815C42.8736 18.5829 42.9824 18.4595 43.0638 18.3185C43.1451 18.1775 43.1976 18.0218 43.2179 17.8603C43.2655 17.5357 43.1822 17.2054 42.9864 16.9418C42.7905 16.6783 42.498 16.5027 42.1728 16.4537C42.0105 16.4309 41.8453 16.4402 41.6866 16.481C41.5279 16.5219 41.3788 16.5936 41.2479 16.6919C41.1169 16.7903 41.0067 16.9134 40.9234 17.0542C40.8402 17.1951 40.7856 17.3509 40.7627 17.5128C40.7398 17.6747 40.7491 17.8395 40.7901 17.9978C40.8311 18.1561 40.9029 18.3049 41.0015 18.4355C41.1001 18.5661 41.2235 18.6761 41.3647 18.7591C41.5059 18.8421 41.6621 18.8966 41.8244 18.9194Z" fill="#CD7F32"/>
<path d="M42.4714 14.3686C42.7968 14.411 43.1257 14.3235 43.3867 14.1251C43.6477 13.9268 43.8196 13.6336 43.8649 13.3094C43.9032 13.1421 43.9062 12.9686 43.8738 12.8C43.8414 12.6314 43.7743 12.4713 43.6767 12.3299C43.5791 12.1885 43.4532 12.0688 43.3068 11.9785C43.1605 11.8881 42.997 11.829 42.8266 11.8048C42.6562 11.7807 42.4827 11.7921 42.3169 11.8383C42.1512 11.8845 41.9969 11.9646 41.8637 12.0733C41.7305 12.182 41.6214 12.3172 41.5433 12.4701C41.4651 12.6231 41.4197 12.7905 41.4097 12.9619C41.3863 13.1239 41.3952 13.2889 41.436 13.4474C41.4768 13.6059 41.5485 13.7548 41.6472 13.8856C41.7459 14.0163 41.8695 14.1263 42.011 14.2092C42.1524 14.2921 42.3089 14.3462 42.4714 14.3686Z" fill="#CD7F32"/>
<path d="M26.0367 15.9606C26.8634 16.0939 27.5301 16.4939 28.0367 17.1606C28.5567 17.8139 28.8167 18.6006 28.8167 19.5206C28.8167 20.3606 28.6034 21.0872 28.1767 21.7006C27.7501 22.3139 27.1434 22.7872 26.3567 23.1206C25.5834 23.4539 24.6701 23.6206 23.6167 23.6206C21.5901 23.6206 20.0434 22.9806 18.9767 21.7006L20.4967 19.8006C20.8434 20.2406 21.2567 20.5806 21.7367 20.8206C22.2301 21.0606 22.8301 21.1806 23.5367 21.1806C24.3501 21.1806 24.9701 21.0139 25.3967 20.6806C25.8234 20.3606 26.0367 19.8739 26.0367 19.2206C26.0367 18.5272 25.7901 17.9939 25.2967 17.6206C24.8034 17.2472 24.0567 17.0606 23.0567 17.0606H22.4967V15.0606H23.1167C23.9301 15.0606 24.5634 14.8806 25.0167 14.5206C25.4834 14.1472 25.7167 13.6739 25.7167 13.1006C25.7167 12.5672 25.5301 12.1672 25.1567 11.9006C24.7834 11.6206 24.2967 11.4806 23.6967 11.4806C22.4567 11.4806 21.5101 12.0139 20.8567 13.0806L19.1767 11.2006C19.4567 10.8006 19.8367 10.4472 20.3167 10.1406C20.8101 9.83389 21.3701 9.59389 21.9967 9.42056C22.6367 9.24722 23.3034 9.16056 23.9967 9.16056C24.9034 9.16056 25.6967 9.30722 26.3767 9.60056C27.0701 9.89389 27.6101 10.3072 27.9967 10.8406C28.3834 11.3739 28.5767 11.9939 28.5767 12.7006C28.5767 13.2339 28.4701 13.7339 28.2567 14.2006C28.0434 14.6539 27.7434 15.0406 27.3567 15.3606C26.9834 15.6672 26.5434 15.8672 26.0367 15.9606Z" fill="#CD7F32"/>
</svg>
