<svg width="37" height="37" viewBox="0 0 37 37" fill="none" xmlns="http://www.w3.org/2000/svg">
<path d="M19.2709 26.2083L18.5 27.75L17.7292 26.2083L16.9584 20.0417H20.0417L19.2709 26.2083Z" fill="#6A5ACD"/>
<path d="M22.3542 33.9167C22.3542 34.7684 21.6635 35.4583 20.8125 35.4583H16.1875C15.3365 35.4583 14.6459 34.7684 14.6459 33.9167V28.5208C14.6459 27.6691 17.7292 26.2083 17.7292 26.2083H19.2709C19.2709 26.2083 22.3542 27.6691 22.3542 28.5208V33.9167Z" fill="#6A5ACD"/>
<path d="M19.2708 26.2083V26.9792H17.7291V26.2083L16.9583 20.0417H20.0416L19.2708 26.2083Z" fill="white"/>
<path d="M15.1931 19.2485C14.8031 19.149 5.62092 16.7541 4.10084 9.40648C3.42482 6.13429 4.26194 4.24575 5.08442 3.23673C6.10115 1.98721 7.48711 1.54167 8.44448 1.54167C9.72484 1.54167 10.7146 1.89394 11.3875 2.58923C12.2339 3.46567 12.2216 4.53173 12.2185 4.65198C12.2185 5.86373 11.3975 7.70833 9.13515 7.70833C9.04034 7.70833 8.5524 7.69446 8.04519 7.42698C7.3075 7.04002 6.90282 6.31698 6.90282 5.39583H8.44448C8.44448 5.83829 8.61638 5.98475 8.76438 6.06415C8.94013 6.15587 9.13438 6.16667 9.13592 6.16667C10.6028 6.16667 10.6776 4.88169 10.6776 4.625C10.6776 4.58723 10.676 4.06075 10.2652 3.64681C9.89288 3.27296 9.28007 3.08333 8.44448 3.08333C7.98044 3.08333 7.00379 3.32152 6.27921 4.20952C5.40354 5.2856 5.17229 6.97373 5.6109 9.09352C6.93673 15.5053 15.4837 17.7307 15.5701 17.7515L15.1931 19.2485Z" fill="white"/>
<path d="M21.6528 19.2708L21.191 17.8001C21.2681 17.7777 28.9541 15.2856 31.1402 9.03031C31.81 7.11865 31.7638 5.60704 31.0014 4.53481C30.2653 3.49573 29.0173 3.11956 28.359 3.11956C26.0727 3.11956 26.0465 4.59802 26.0465 4.66123C26.0527 5.01658 26.1806 6.2029 27.5882 6.2029C27.9351 6.19365 28.359 6.05258 28.359 5.43206H29.9007C29.9007 7.12713 28.5178 7.74456 27.5882 7.74456C25.325 7.74456 24.5049 5.89842 24.5049 4.66123C24.5049 3.59517 25.3104 1.5779 28.359 1.5779C29.5315 1.5779 31.2527 2.22231 32.2602 3.64065C32.9933 4.67356 33.6469 6.53744 32.5978 9.53906C30.1512 16.5336 21.9989 19.1621 21.6528 19.2708Z" fill="white"/>
<path d="M22.3541 30.0625H14.6458V28.5208C14.6458 27.6698 17.7291 26.2083 17.7291 26.2083H19.2708C19.2708 26.2083 22.3541 27.6698 22.3541 28.5208V30.0625Z" fill="#E7EDF7"/>
<path d="M26.2083 2.3125C26.2083 8.47917 24.6019 21.5833 18.5 21.5833C12.398 21.5833 10.7916 8.47917 10.7916 2.3125H26.2083Z" fill="#E7EDF7"/>
<path d="M19.2708 14.6458H17.7292V8.9486L16.1875 9.46198V8.10531L19.1267 6.9375H19.2708V14.6458Z" fill="#6A5ACD"/>
<path d="M23.8958 29.2917H13.1041V35.4583H23.8958V29.2917Z" fill="#E5E5E5"/>
<path d="M22.3542 31.6042H14.6459V33.1458H22.3542V31.6042Z" fill="#6A5ACD"/>
</svg>
