<svg width="26" height="27" viewBox="0 0 26 27" fill="none" xmlns="http://www.w3.org/2000/svg">
<path d="M21.89 22.7897C21.5456 22.7897 21.2664 22.5002 21.2664 22.1426C21.2664 18.0104 18.0293 14.6482 14.0497 14.6482C10.0701 14.6482 6.83253 18.0104 6.83253 22.1426C6.83253 22.5002 6.55335 22.7897 6.20935 22.7897C5.86536 22.7897 5.58618 22.5002 5.58618 22.1426C5.58618 17.2968 9.38296 13.354 14.0497 13.354C18.7164 13.354 22.5128 17.2968 22.5128 22.1426C22.5128 22.5002 22.234 22.7897 21.89 22.7897Z" fill="#5E49DA"/>
<path d="M14.0497 14.4067C11.3427 14.4067 9.14038 12.1197 9.14038 9.30848C9.14038 6.49773 11.3427 4.21074 14.0497 4.21074C16.7568 4.21074 18.9591 6.49773 18.9591 9.30848C18.9591 12.1197 16.7568 14.4067 14.0497 14.4067ZM14.0497 5.50502C12.0298 5.50502 10.3867 7.21131 10.3867 9.30848C10.3867 11.4061 12.0298 13.1124 14.0497 13.1124C16.0696 13.1124 17.7127 11.4061 17.7127 9.30848C17.7127 7.21131 16.0696 5.50502 14.0497 5.50502Z" fill="#5E49DA"/>
<path d="M5.41952 20.9285H0.623172C0.279181 20.9285 0 20.6386 0 20.2814C0 16.1116 3.04067 12.9674 7.07301 12.9674C8.30398 12.9674 9.52124 13.3233 10.6907 14.0257C10.9886 14.2047 11.0904 14.6004 10.9184 14.9101C10.746 15.2195 10.3646 15.3252 10.0667 15.1465C9.08918 14.5589 8.08213 14.2617 7.07301 14.2617C3.96379 14.2617 1.56956 16.5293 1.27667 19.6342H5.41952C5.76351 19.6342 6.04269 19.9242 6.04269 20.2814C6.04269 20.6386 5.76351 20.9285 5.41952 20.9285Z" fill="#5E49DA"/>
<path d="M7.10205 14.1556C4.80504 14.1556 2.93677 12.215 2.93677 9.83009C2.93677 7.44516 4.80504 5.50504 7.10205 5.50504C8.21462 5.50504 9.26031 5.95501 10.0472 6.77171C10.2906 7.02452 10.2906 7.43481 10.0472 7.68719C9.80371 7.94001 9.40904 7.94001 9.166 7.68719C8.61428 7.11469 7.88185 6.79932 7.10205 6.79932C5.49261 6.79932 4.18311 8.15874 4.18311 9.83009C4.18311 11.501 5.49261 12.8613 7.10205 12.8613C8.05883 12.8613 8.95661 12.3725 9.50251 11.5545C9.6986 11.2607 10.0866 11.1878 10.3696 11.3914C10.6525 11.5951 10.7231 11.9984 10.5266 12.2918C9.74763 13.458 8.46763 14.1556 7.10205 14.1556Z" fill="#5E49DA"/>
<path d="M25.377 20.9285H22.0376C21.6936 20.9285 21.4144 20.6386 21.4144 20.2814C21.4144 19.9242 21.6936 19.6343 22.0376 19.6343H24.7197C24.4269 16.8684 22.2765 14.6379 19.4901 14.3247C19.1847 14.2906 18.9483 14.03 18.9346 13.7112C18.9205 13.3924 19.1324 13.1102 19.4336 13.0472C20.8233 12.756 21.7937 11.5519 21.7937 10.1183C21.7937 8.47066 20.2969 6.97015 18.653 6.97015C18.309 6.97015 18.0298 6.68067 18.0298 6.32301C18.0298 5.96536 18.309 5.67587 18.653 5.67587C20.9899 5.67587 23.0401 7.7519 23.0401 10.1183C23.0401 11.4842 22.431 12.7038 21.4427 13.4912C24.1356 14.5564 26.0002 17.2127 26.0002 20.2814C26.0002 20.6386 25.721 20.9285 25.377 20.9285Z" fill="#5E49DA"/>
</svg>
