<svg width="25" height="25" viewBox="0 0 25 25" fill="none" xmlns="http://www.w3.org/2000/svg">
<path d="M12.5 12.5C13.5816 12.5 14.6389 12.1793 15.5383 11.5784C16.4376 10.9774 17.1386 10.1233 17.5525 9.12405C17.9664 8.12477 18.0747 7.02519 17.8637 5.96435C17.6527 4.90352 17.1318 3.92908 16.367 3.16426C15.6022 2.39944 14.6277 1.8786 13.5669 1.66758C12.5061 1.45657 11.4065 1.56487 10.4072 1.97879C9.40792 2.3927 8.55381 3.09365 7.9529 3.99298C7.35199 4.89231 7.03125 5.94964 7.03125 7.03125C7.03125 8.48166 7.60742 9.87265 8.63301 10.8982C9.6586 11.9238 11.0496 12.5 12.5 12.5ZM12.5 3.125C13.2726 3.125 14.0278 3.3541 14.6702 3.78332C15.3126 4.21255 15.8133 4.82262 16.1089 5.53639C16.4046 6.25017 16.4819 7.03559 16.3312 7.79332C16.1805 8.55106 15.8084 9.24709 15.2621 9.79339C14.7158 10.3397 14.0198 10.7117 13.2621 10.8624C12.5043 11.0132 11.7189 10.9358 11.0051 10.6402C10.2914 10.3445 9.6813 9.84383 9.25207 9.20145C8.82285 8.55907 8.59375 7.80384 8.59375 7.03125C8.59375 5.99525 9.0053 5.00168 9.73786 4.26912C10.4704 3.53655 11.464 3.125 12.5 3.125Z" fill="#A5A2A2"/>
<path d="M13.2812 14.0625H11.7188C9.43955 14.0625 7.25369 14.9679 5.64205 16.5796C4.03041 18.1912 3.125 20.377 3.125 22.6562C3.125 22.8635 3.20731 23.0622 3.35382 23.2087C3.50034 23.3552 3.69905 23.4375 3.90625 23.4375H21.0938C21.301 23.4375 21.4997 23.3552 21.6462 23.2087C21.7927 23.0622 21.875 22.8635 21.875 22.6562C21.875 20.377 20.9696 18.1912 19.358 16.5796C17.7463 14.9679 15.5605 14.0625 13.2812 14.0625ZM4.73438 21.875C4.92648 20.1568 5.74493 18.5695 7.03334 17.4166C8.32176 16.2636 9.9898 15.6258 11.7188 15.625H13.2812C15.0102 15.6258 16.6782 16.2636 17.9667 17.4166C19.2551 18.5695 20.0735 20.1568 20.2656 21.875H4.73438Z" fill="#A5A2A2"/>
</svg>
