<svg width="92" height="87" viewBox="0 0 92 87" fill="none" xmlns="http://www.w3.org/2000/svg">
<path d="M65.3409 63.6898C67.7803 63.6898 69.697 65.7089 69.697 68.2785C69.697 70.8481 67.7803 72.8671 65.3409 72.8671C62.9015 72.8671 60.9848 70.8022 60.9848 68.2785C60.9848 65.7547 62.9015 63.6898 65.3409 63.6898ZM65.3409 49.924C77.233 49.924 87.3825 57.5411 91.4773 68.2785C87.3825 79.0158 77.233 86.6329 65.3409 86.6329C53.4489 86.6329 43.2993 79.0158 39.2045 68.2785C43.2993 57.5411 53.4489 49.924 65.3409 49.924ZM65.3409 56.8069C59.3295 56.8069 54.4507 61.9462 54.4507 68.2785C54.4507 74.6108 59.3295 79.75 65.3409 79.75C71.3523 79.75 76.2311 74.6108 76.2311 68.2785C76.2311 61.9462 71.3523 56.8069 65.3409 56.8069ZM69.697 0H8.71212C3.92045 0 0 4.12975 0 9.17721V64.2405C0 69.288 3.92045 73.4178 8.71212 73.4178H32.322C31.625 71.9493 31.0152 70.3893 30.4925 68.8291C31.0152 67.2689 31.625 65.7089 32.322 64.2405H8.71212V45.8861H34.8485V59.5143C37.2443 55.568 40.2064 52.1725 43.5606 49.3734V45.8861H48.57C53.6231 42.9494 59.3295 41.2975 65.3409 41.2975C69.9584 41.2975 74.358 42.2611 78.4091 44.0047V9.17721C78.4091 4.12975 74.4886 0 69.697 0ZM34.8485 36.7088H8.71212V18.3545H34.8485V36.7088ZM69.697 36.7088H43.5606V18.3545H69.697V36.7088Z" fill="#6A5ACD"/>
</svg>
