<svg width="28" height="28" viewBox="0 0 28 28" fill="none" xmlns="http://www.w3.org/2000/svg">
<path d="M14 28C21.732 28 28 21.732 28 14C28 6.26801 21.732 0 14 0C6.26801 0 0 6.26801 0 14C0 21.732 6.26801 28 14 28Z" fill="#5E49DA"/>
<path d="M14 24.8889C20.0137 24.8889 24.8889 20.0137 24.8889 14C24.8889 7.98621 20.0137 3.11108 14 3.11108C7.98621 3.11108 3.11108 7.98621 3.11108 14C3.11108 20.0137 7.98621 24.8889 14 24.8889Z" fill="white"/>
<path d="M15.4718 12.9858H12.5281C12.2298 12.9858 11.9778 12.7338 11.9778 12.4355V10.1516C11.9778 9.85325 12.2298 9.60125 12.5281 9.60125H15.4718C15.7702 9.60125 16.0222 9.85325 16.0222 10.1516C16.0222 10.6671 16.44 11.0849 16.9555 11.0849C17.471 11.0849 17.8889 10.6671 17.8889 10.1516C17.8889 8.81881 16.8046 7.73458 15.4718 7.73458H14.9333V6.83018C14.9333 6.31467 14.5155 5.89685 14 5.89685C13.4845 5.89685 13.0666 6.31467 13.0666 6.83018V7.73458H12.5281C11.1953 7.73458 10.1111 8.81881 10.1111 10.1516V12.4355C10.1111 13.7661 11.1922 14.8488 12.5222 14.8522C12.5244 14.8522 12.5262 14.8528 12.5281 14.8528H15.4718C15.7702 14.8528 16.0222 15.1048 16.0222 15.4032V17.687C16.0222 17.9854 15.7702 18.2377 15.4718 18.2377H12.5281C12.2298 18.2377 11.9778 17.9854 11.9778 17.687C11.9778 17.1715 11.5599 16.7537 11.0444 16.7537C10.5289 16.7537 10.1111 17.1715 10.1111 17.687C10.1111 19.0198 11.1953 20.1044 12.5281 20.1044H13.0666V21.1705C13.0666 21.686 13.4845 22.1039 14 22.1039C14.5155 22.1039 14.9333 21.686 14.9333 21.1705V20.1044H15.4718C16.8043 20.1044 17.8889 19.0201 17.8889 17.687V15.4032C17.8889 14.0701 16.8046 12.9858 15.4718 12.9858Z" fill="#5E49DA"/>
</svg>
