<svg width="19" height="20" viewBox="0 0 19 20" fill="none" xmlns="http://www.w3.org/2000/svg">
<path d="M8.70837 3.33333H3.16671C2.74678 3.33333 2.34405 3.50893 2.04712 3.82149C1.75019 4.13405 1.58337 4.55797 1.58337 5V16.6667C1.58337 17.1087 1.75019 17.5326 2.04712 17.8452C2.34405 18.1577 2.74678 18.3333 3.16671 18.3333H14.25C14.67 18.3333 15.0727 18.1577 15.3696 17.8452C15.6666 17.5326 15.8334 17.1087 15.8334 16.6667V10.8333" stroke="white" stroke-width="2" stroke-linecap="round" stroke-linejoin="round"/>
<path d="M14.6459 2.08333C14.9608 1.75181 15.388 1.56557 15.8334 1.56557C16.2788 1.56557 16.7059 1.75181 17.0209 2.08333C17.3358 2.41485 17.5128 2.86449 17.5128 3.33333C17.5128 3.80217 17.3358 4.25181 17.0209 4.58333L9.50004 12.5L6.33337 13.3333L7.12504 10L14.6459 2.08333Z" stroke="white" stroke-width="2" stroke-linecap="round" stroke-linejoin="round"/>
</svg>
