<svg width="26" height="22" viewBox="0 0 26 22" fill="none" xmlns="http://www.w3.org/2000/svg">
<path d="M11.3879 17.5459C6.32656 17.5459 2.28789 14.4262 0.363892 9.71967C2.30523 5.01311 6.34389 1.89344 11.3879 1.89344C16.4319 1.89344 20.4879 5.01311 22.4292 9.71967C20.4879 14.4262 16.4319 17.5459 11.3879 17.5459ZM11.3879 15.6705C15.3919 15.6705 18.8412 13.2361 20.4532 9.71967C18.8412 6.20328 15.3919 3.76885 11.3879 3.76885C7.40123 3.76885 3.95189 6.20328 2.33989 9.71967C3.93456 13.2361 7.38389 15.6705 11.3879 15.6705ZM7.19323 9.71967C7.19323 7.30328 9.06523 5.35574 11.3706 5.35574C13.6932 5.35574 15.5652 7.32131 15.5652 9.71967C15.5652 12.1361 13.6759 14.0836 11.3706 14.0836C9.06523 14.0836 7.19323 12.118 7.19323 9.71967ZM11.6306 8.61967C11.6306 9.37705 12.2026 9.99016 12.9479 9.99016C13.6586 9.99016 14.2479 9.37705 14.2479 8.61967C14.2479 7.88033 13.6759 7.26721 12.9479 7.26721C12.2199 7.26721 11.6306 7.86229 11.6306 8.61967Z" fill="#5E49DA"/>
</svg>
