<svg width="37" height="38" viewBox="0 0 37 38" fill="none" xmlns="http://www.w3.org/2000/svg">
<path d="M31.1511 32.0744C30.661 32.0744 30.2637 31.6669 30.2637 31.1636C30.2637 25.3479 25.6569 20.616 19.9937 20.616C14.3304 20.616 9.72311 25.3479 9.72311 31.1636C9.72311 31.6669 9.32581 32.0744 8.83629 32.0744C8.34676 32.0744 7.94946 31.6669 7.94946 31.1636C7.94946 24.3436 13.3526 18.7944 19.9937 18.7944C26.6348 18.7944 32.0373 24.3436 32.0373 31.1636C32.0373 31.6669 31.6406 32.0744 31.1511 32.0744Z" fill="#5E49DA"/>
<path d="M19.9937 20.276C16.1414 20.276 13.0073 17.0572 13.0073 13.1007C13.0073 9.14488 16.1414 5.92615 19.9937 5.92615C23.8461 5.92615 26.9801 9.14488 26.9801 13.1007C26.9801 17.0572 23.8461 20.276 19.9937 20.276ZM19.9937 7.74773C17.1192 7.74773 14.781 10.1492 14.781 13.1007C14.781 16.0529 17.1192 18.4544 19.9937 18.4544C22.8682 18.4544 25.2065 16.0529 25.2065 13.1007C25.2065 10.1492 22.8682 7.74773 19.9937 7.74773Z" fill="#5E49DA"/>
<path d="M7.7124 29.4549H0.886822C0.397296 29.4549 0 29.0469 0 28.5441C0 22.6756 4.3271 18.2504 10.0654 18.2504C11.8172 18.2504 13.5495 18.7513 15.2137 19.7398C15.6376 19.9918 15.7825 20.5486 15.5377 20.9846C15.2924 21.4199 14.7496 21.5687 14.3257 21.3173C12.9346 20.4903 11.5015 20.0719 10.0654 20.0719C5.64078 20.0719 2.23361 23.2634 1.8168 27.6333H7.7124C8.20192 27.6333 8.59922 28.0414 8.59922 28.5441C8.59922 29.0469 8.20192 29.4549 7.7124 29.4549Z" fill="#5E49DA"/>
<path d="M10.1067 19.9225C6.83789 19.9225 4.1792 17.1914 4.1792 13.8348C4.1792 10.4782 6.83789 7.74768 10.1067 7.74768C11.69 7.74768 13.1781 8.38098 14.2978 9.5304C14.6443 9.88622 14.6443 10.4637 14.2978 10.8189C13.9514 11.1747 13.3897 11.1747 13.0439 10.8189C12.2587 10.0131 11.2164 9.56926 10.1067 9.56926C7.81635 9.56926 5.95284 11.4825 5.95284 13.8348C5.95284 16.1865 7.81635 18.1009 10.1067 18.1009C11.4683 18.1009 12.7459 17.413 13.5228 16.2618C13.8018 15.8483 14.354 15.7456 14.7566 16.0322C15.1592 16.3188 15.2597 16.8866 14.9801 17.2994C13.8716 18.9407 12.05 19.9225 10.1067 19.9225Z" fill="#5E49DA"/>
<path d="M36.1131 29.4549H31.3609C30.8714 29.4549 30.4741 29.0468 30.4741 28.5441C30.4741 28.0413 30.8714 27.6333 31.3609 27.6333H35.1778C34.761 23.7406 31.7009 20.6014 27.7356 20.1606C27.301 20.1126 26.9646 19.7459 26.9451 19.2971C26.925 18.8484 27.2266 18.4513 27.6552 18.3627C29.6328 17.9528 31.0139 16.2581 31.0139 14.2404C31.0139 11.9216 28.8837 9.80974 26.5443 9.80974C26.0548 9.80974 25.6575 9.40231 25.6575 8.89895C25.6575 8.39559 26.0548 7.98816 26.5443 7.98816C29.8699 7.98816 32.7875 10.91 32.7875 14.2404C32.7875 16.1628 31.9208 17.8793 30.5143 18.9875C34.3466 20.4866 36.9999 24.2251 36.9999 28.5441C36.9999 29.0468 36.6026 29.4549 36.1131 29.4549Z" fill="#5E49DA"/>
</svg>
