<svg width="88" height="79" viewBox="0 0 88 79" fill="none" xmlns="http://www.w3.org/2000/svg">
<path d="M62.5 57.8333C64.8333 57.8333 66.6667 59.6667 66.6667 62C66.6667 64.3333 64.8333 66.1667 62.5 66.1667C60.1667 66.1667 58.3333 64.2917 58.3333 62C58.3333 59.7083 60.1667 57.8333 62.5 57.8333ZM62.5 45.3333C73.875 45.3333 83.5833 52.25 87.5 62C83.5833 71.75 73.875 78.6667 62.5 78.6667C51.125 78.6667 41.4167 71.75 37.5 62C41.4167 52.25 51.125 45.3333 62.5 45.3333ZM62.5 51.5833C56.75 51.5833 52.0833 56.25 52.0833 62C52.0833 67.75 56.75 72.4167 62.5 72.4167C68.25 72.4167 72.9167 67.75 72.9167 62C72.9167 56.25 68.25 51.5833 62.5 51.5833ZM66.6667 0H8.33333C3.75 0 0 3.75 0 8.33333V58.3333C0 62.9167 3.75 66.6667 8.33333 66.6667H30.9167C30.25 65.3333 29.6667 63.9167 29.1667 62.5C29.6667 61.0833 30.25 59.6667 30.9167 58.3333H8.33333V41.6667H33.3333V54.0417C35.625 50.4583 38.4583 47.375 41.6667 44.8333V41.6667H46.4583C51.2917 39 56.75 37.5 62.5 37.5C66.9167 37.5 71.125 38.375 75 39.9583V8.33333C75 3.75 71.25 0 66.6667 0ZM33.3333 33.3333H8.33333V16.6667H33.3333V33.3333ZM66.6667 33.3333H41.6667V16.6667H66.6667V33.3333Z" fill="#8539D9"/>
</svg>
